/* XPM */
static char *result[] = {
/* columns rows colors chars-per-pixel */
"48 65 34 1 ",
"  c #090909",
". c #313232",
"X c #45720F",
"o c #45750F",
"O c #48730F",
"+ c #48750F",
"@ c #48770F",
"# c #48780F",
"$ c #4B7A0F",
"% c #4A7B0F",
"& c #4D7A0F",
"* c #4D7B0F",
"= c #4B7D0F",
"- c #4D7D0F",
"; c #135440",
": c #196F53",
"> c gray27",
", c #484848",
"< c #515151",
"1 c #5D5D5D",
"2 c #646464",
"3 c #676767",
"4 c #686868",
"5 c #6A6A6A",
"6 c #6F6F6F",
"7 c gray50",
"8 c #4F820F",
"9 c #51800F",
"0 c #1E8868",
"q c #22946E",
"w c #2AB88A",
"e c #2EC996",
"r c #929292",
"t c #A4A4A4",
/* pixels */
"-%XXoo9#X+@@@@%+99X++9-%Xo9999#X+@@@@%++9X+99-%X",
"-%XXoo9#X+@@@@%+99X++9-%Xo9999#X+@@@@%++9X+99-%X",
"@%XX++9*+9****9*99+$$$@%X+9999*+9****9**9+$$$@%X",
"@%XX++9*+9****9*99+$$$@%X+9999*+9****9**9+$$$@%X",
"@%XX++9*+9****9*99+$$$@%X+9999*+9****9**9+$$$@%X",
"@%XX++9*+9****9*99+$$$@%X+9999*+9****9**9+$$$@%X",
"@%XX++9*+9****9*99+$$$@%X+9999*+9****9**9+$$$@%X",
"@%XX++9*+9****9*99+$$$@%X+9999*+9****9**9+$$$@%X",
"@%XX++9*+9****9*99+$$$@%X+9999*+9****9**9+$$$@%X",
"+$@@999%=9@@@$$-%%@++++$@99999%=9@$$$$--%@++++$@",
"+$@@999%=9@@@$$-%%@++++$@99999%=9@$$$$--%@++++$@",
"+$@@999%=9@@@$$-%%@++++$@99999%=9@$$$$--%@++++$@",
"+$@@999%=9@@@$$-%%@++++$@99999%=9@$$$$--%@++++$@",
"+$@@999%=9@@@$$-%%@++++$@99999%=9@$$$$--%@++++$@",
"++--88$+-@++++%-++$++=++-8$$$$+-@++++%--+$+==++-",
"++--88$+-@++++%-++$++=++-8$$$$+-@++++%--+$+==++-",
"9-##99-+X@---....................-@@@999%@@@@9-#",
"9-##99-+X@---....................-@@@999%@@@@9-#",
"9-##99-+X@-..tt,,tt,,tttt,,tt,,tt..@@999%@@@@9-#",
"9-##99-+X@-..tt,,tt,,tttt,,tt,,tt..@@999%@@@@9-#",
"9-##99-+X@-..tt,,rr,,rrrr,,rr,,tt..@@999%@@@@9-#",
"9-##99-+X@-..tt,,rr,,rrrr,,rr,,tt..@@999%@@@@9-#",
"8=@@--@OO+%..tt22            22tt..@@-##9#*%%8=@",
"8=@@--@OO+%..tt22            22tt..@@-##9#*%%8=@",
"8=@@--@OO+%..ttrr            rrtt..@@-##9#*%%8=@",
"8=@@--@OO+%..ttrr            rrtt..@@-##9#*%%8=@",
"8=@@--@OO+%..ttrrrrrr    rrrrrrtt..@@-##9#*%%8=@",
"8=@@--@OO+%..ttrrrrrr    rrrrrrtt..@@-##9#*%%8=@",
"-9--##O+@@$..77ttttrr    rrtttttt..++-%%-@+++-9-",
"-9--##O+@@$..77ttttrr    rrtttttt..++-%%-@+++-9-",
"$%@@$$++*-#..3377ttrr    rrtt7733..oo*@@o+=@@$%@",
"$%@@$$++*-#..3377ttrr    rrtt7733..oo*@@o+=@@$%@",
"$%@@$$++*-###..3377rrrrrrrr7733..#ooo*@@o+=@@$%@",
"$%@@$$++*-###..3377rrrrrrrr7733..#ooo*@@o+=@@$%@",
"$%@@$$++*-###o*................*-#ooo*@@o+=@@$%@",
"$%@@$$++*-###o*................*-#ooo*@@o+=@@$%@",
"-#++++@@%9999..7777wweewwww77;;;;;;++$@@&o+@@-#+",
"-#++++@@%9999..7777wweewwww77;;;;;;++$@@&o+@@-#+",
"-#++++@@%99..44..rr77wwqq77;;::00::;;$@@&o+@@-#+",
"-#++++@@%99..44..rr77wwqq77;;::00::;;$@@&o+@@-#+",
"-#++++@@%99..77..ww66qqqq66;;00ww00;;$@@&o+@@-#+",
"-#++++@@%99..77..ww66qqqq66;;00ww00;;$@@&o+@@-#+",
"@$++XX+@X+---....>><<<<>>>>;;::00::;;X++*+#++@$+",
"@$++XX+@X+---....>><<<<>>>>;;::00::;;X++*+#++@$+",
"@@--##$9@XXXXX%..1155....5511;;;;;;XX%@@-+@++@@-",
"@@--##$9@XXXXX%..1155....5511;;;;;;XX%@@-+@++@@-",
"@@--##$9@XXXXX%......+@@-......@XXXXX%@@-+@++@@-",
"@@--##$9@XXXXX%......+@@-......@XXXXX%@@-+@++@@-",
"@@--##$9@XXXXX%@--+@@+@@-#$$$$9@XXXXX%@@-+@++@@-",
"@@--##$9@XXXXX%@--+@@+@@-#$$$$9@XXXXX%@@-+@++@@-",
"*@++@@@-%+XXX+-@@@---#*@+@@@@@-%+X+++-@@@--##*@+",
"*@++@@@-%+XXX+-@@@---#*@+@@@@@-%+X+++-@@@--##*@+",
"*@++@@@-%+XXX+-@@@---#*@+@@@@@-%+X+++-@@@--##*@+",
"*@++@@@-%+XXX+-@@@---#*@+@@@@@-%+X+++-@@@--##*@+",
"*@++@@@-%+XXX+-@@@---#*@+@@@@@-%+X+++-@@@--##*@+",
"@oXX++9*+$@@@-@o**-@@=@oX+9999*+$@---@oo*-@==@oX",
"@oXX++9*+$@@@-@o**-@@=@oX+9999*+$@---@oo*-@==@oX",
"@oXX++9*+$@@@-@o**-@@=@oX+9999*+$@---@oo*-@==@oX",
"%#==++%-@X+++**9--$$$@%#=+%%%%-@X+****99-$$@@%#=",
"%#==++%-@X+++**9--$$$@%#=+%%%%-@X+****99-$$@@%#=",
"%#==++%-@X+++**9--$$$@%#=+%%%%-@X+****99-$$@@%#=",
"%#==++%-@X+++**9--$$$@%#=+%%%%-@X+****99-$$@@%#=",
"%#==++%-@X+++**9--$$$@%#=+%%%%-@X+****99-$$@@%#=",
"%#==++%-@X+++**9--$$$@%#=+%%%%-@X+****99-$$@@%#=",
"++++XXo+@+$$$**9++%--++++Xoooo+@+$****99+%-+++++"
};
