/* XPM */
static char *_7670e9f117d4b9eb58f8dce8a86b3eeBy1LBfG8tkACJnqL[] = {
/* columns rows colors chars-per-pixel */
"48 65 35 1 ",
"  c #090909",
". c #313232",
"X c #45720F",
"o c #45750F",
"O c #48730F",
"+ c #48750F",
"@ c #48770F",
"# c #48780F",
"$ c #4A7B0F",
"% c #4D7A0F",
"& c #4D7B0F",
"* c #4B7D0F",
"= c #4D7D0F",
"- c #135440",
"; c #196F53",
": c gray27",
"> c #484848",
", c #515151",
"< c #5D5D5D",
"1 c #646464",
"2 c #676767",
"3 c #686868",
"4 c #6A6A6A",
"5 c #6F6F6F",
"6 c gray50",
"7 c #4F820F",
"8 c #51800F",
"9 c #1C8061",
"0 c #1E8868",
"q c #22946E",
"w c #2AB88A",
"e c #2BC393",
"r c #2EC996",
"t c #929292",
"y c #A4A4A4",
/* pixels */
"=$XXXX=@X@O&@@$@88OO@==$Xo==88%X@@@@@$@O8O@=8=$X",
"=$XX@@==X@&@@@$O88O@%==$Xo8888$XO@&%@&O@=X@=8=$X",
"@$XXO@8&O==&&&==88@%&%X$X@8888&O&=%%%=%%=$&&&&&X",
"@$XX@@8&@=&&&==&=&@&&%&$X$888=&@===%==&&=O&%&@&X",
"@$XX@@8&%8%%&&==88@&&$@$XO8888&O8%%=%8=%=@%%&@$X",
"@$XX@O8&O===&&8%88@&$&@$X@8888&@8=%%%8=%=@%%$@$X",
"@$XXO@=&%=%%=%8%=8X%$%@$X@&888=O8%=%%8%%=$O$$@$X",
"@$XX@O==%==%%=====@%@$@$XO=888%%==%%=8%=&@&$&@*X",
"@&XX$o=&O=%%%%8=&=@%%%@$X$8888&o8%%%&&&&=@&$&X*X",
"@&@@&88$=8@@@%%=$$@@@OX&@8888=$*8=%%$&&==$@OO@&o",
"O&@@=8===8%@@$&=$$@@O@O&@=8888$*=@&&$$==$@O@@O&@",
"O$@=887*=8@@@$&=$$@O@O@&==8888**=@$$&$==$@@OO@$@",
"@$@@888*==@@@$@=$$@@O@@@@=8888%=8=&$$%==$@@O@O&o",
"O&@@888*==@@@&&=$&@O@O@$@=88=&===@&&@$==$@O@O@$@",
"@O&=87&O==@O@O$&O@$@O&@@78%%$&@=@O@O@$&=OO@&=O@=",
"O@==8=&@=oO@O@$=@@@O@=o#=8%%$&O=&@O@O%&=@$@&*@O=",
"==@$=8=@X@==----$$................@@$888&@@@===@",
"==@@88&@X@==----$$................@&@888$@@@@==@",
"8==$8==@X@--wwee..yy>>yy>>yy>>yy>>..@=88$@@@@==$",
"8=@@8==OX@--wwee..yy>>yy>>yy>>yy>>..@888$@@@&8=@",
"==&@88=$--qqww..66yy>>tt>>tt>>tt>>..@=88$@@@@==@",
"==@@88=@--qqww..66yy>>tt>>tt>>tt>>..$=88$@@@$==$",
"8=@@==@O--qqrr..66yy11            ..@=$o=X&$$7*@",
"8=@@==@O--qqrr..66yy11            ..@=@=8$&$$7*@",
"87o#==@O--qqqq..6666tt            ..@=@$==&$$=*@",
"87o#==@O--qqqq..6666tt            ..@&@@=@&==8=o",
"7*$o==@O--;;qq..226666tttt    tttt..@=@$==&$*7*$",
"7*##=&@O--;;qq..226666tttt    tttt..@&$o&$&$*7*o",
"====$oOO--09--..22226666tt    ttyy..@&$$=@@O$===",
"=8=&o$O@--0;--..22226666tt    ttyy..@&$$&@O@@=8&",
"&$o@&$@O&=--$o&@..22226666    ttyy..X&@@o@=@@$$@",
"&*$o$&O@&&--oo=@..22226666    ttyy..o&@@o@=@@O$@",
"%$@@&@O@&&o$$o&@oo..2222666666yyyy..o&@@o@&@@$$@",
"$$@@&$@O=&$o@X&@oX..2222666666yyyy..o=@@oO$@o&$@",
"$$@@$%O@&&@$@o&@ooO$..............ooo=@@o@=@@$$@",
"O$@@$$@O&=@@$o%@oo@$..............ooo&@@oo=@@&$@",
"&@@OO@@@==88=%&@&&..6666wwrrww66------@@&o@@@=@@",
"=$O@@O@@$=88=@%@&&..6666wwrrww66------@@&oO@@=@@",
"=@@OO@@@=888=$&@..42..tt66ww66--;;00;;--&X@@@=$X",
"=@O@@@@@=888&O$@..42..tt66ww66--;;00;;--&oO@@=@O",
"=$@O@O@@$=888$&@..66..ww55,,,,--00ww00--&o@@@&@@",
"=@O@O@@@==88&@&@..66..ww55,,,,--00ww00--&XO@@&$O",
"@&XOXX@@XO===OOO%&....::,,..::--;;00;;--&@@@@@$O",
"@$@@XXO@X@===@X@%%....::,,..::--;;00;;--&O@@@o&@",
"@$==@@$=@XXXXX$@==@@..<<44......------@@&@@O@@@=",
"@o==@$%=@XXXXX$@==O@..<<44......------@@=O@@O@@=",
"@@==@@%8@XXXXX$@==O@......$$&&8%XXXXX$@@=O@O@@@=",
"@@=&$$%8@XXXXX$@==@o......%%$&=@XXXXX$@@=@@@O@@=",
"@@==@@&==XXXXX$@==@@@@@@&$$$$&&@XXXXX$@@&@@@@@@=",
"@@==$@&=@XXXXX$@==O@@O@@=@&@$&=$XXXXX$@@=O@oO@@&",
"&@@O@@@=$OXXXO=@@@===$&@@@@@@@=$@X@O@&@@@==$@&@O",
"&@O@@@@=$@XXX@=@@@===@&@O@@@@@=$OXO@@=@@@==X$&@@",
"&$@O@@@=$@XXXO=@@@===X&@@@@@@@=&@X@OO=@@@==@$&o@",
"&XO@@@@=$OXXX@=@@@===$&@O@@@@@==OXO@@=@@@=&$X&$o",
"&X@@@@@=$OXXX@=@@@===$&@@@@=@@=%@X@O@&@@$==$$&@@",
"$XXX@O==@&@@@=@o=&=@o*@oXO=====@$@===@oX&=o$=@XX",
"ooXXO@=&O$@@@&@o&&=@@=@oO@8=8=&@@@===@oo&&@=*ooX",
"$oXX@@8&X&@@@&@o&&=@@*@oX$8=8&&@&@&&=@oo&&@=$$oX",
"$@=*O@$=@X@@@%&=&=&$$@$@&@$$===@X@%%%==8&$$@o$@$",
"$@=&@O$=@X@O@=%8&&$$&X$$&@$$$$=@X@%%%%88&$&@$$$$",
"$$$*@O$=@XO@O%%===&&&@$$&o*$$$=@O@%====8=$&@o$o*",
"$@**O@$&@O@O@%=8==$$$o$o=o$$$$=@X$%%%%88=$$@@$**",
"$$**@O&&@XO@$%%8&=$&&o$$&@$$$$&@XO=%%=88&&&@@$$=",
"$o**O@&&@X@O@%=8&&$$&@$o=O$$&&=@XO%%==88&$$@@$o&",
"@O@OXXo@@O$&$&&&@@&==@O@OXoooo@@O&&&&&==@&=@@O@O"
};
