/* XPM */
static char *result[] = {
/* columns rows colors chars-per-pixel */
"48 65 33 1 ",
"  c #090909",
". c #313232",
"X c #45720F",
"o c #45750F",
"O c #48730F",
"+ c #48750F",
"@ c #48770F",
"# c #48780F",
"$ c #4B7A0F",
"% c #4A7B0F",
"& c #4D7A0F",
"* c #4D7B0F",
"= c #4B7D0F",
"- c #4D7D0F",
"; c #135440",
": c #196F53",
"> c gray27",
", c #484848",
"< c #5D5D5D",
"1 c #646464",
"2 c #676767",
"3 c #686868",
"4 c #6A6A6A",
"5 c #6F6F6F",
"6 c gray50",
"7 c #4F820F",
"8 c #51800F",
"9 c #1E8868",
"0 c #22946E",
"q c #2AB88A",
"w c #2EC996",
"e c #929292",
"r c #A4A4A4",
/* pixels */
"-%XXoo8#X+@@@@%+88X++8-%Xo8888#X+@@@@%++8X+88-%X",
"-%XXoo8#X+@@@@%+88X++8-%Xo8888#X+@@@@%++8X+88-%X",
"@%XX++8*+8****8*88+$$$@%X+8888*+8****8**8+$$$@%X",
"@%XX++8*+8****8*88+$$$@%X+8888*+8****8**8+$$$@%X",
"@%XX++8*+8****8*88+$$$@%X+8888*+8****8**8+$$$@%X",
"@%XX++8*+8****8*88+$$$@%X+8888*+8****8**8+$$$@%X",
"@%XX++8*+8****8*88+$$$@%X+8888*+8****8**8+$$$@%X",
"@%XX++8*+8****8*88+$$$@%X+8888*+8****8**8+$$$@%X",
"@%XX++8*+8****8*88+$$$@%X+8888*+8****8**8+$$$@%X",
"+$@@888%=8@@@$$-%%@++++$@88888%=8@$$$$--%@++++$@",
"+$@@888%=8@@@$$-%%@++++$@88888%=8@$$$$--%@++++$@",
"+$@@888%=8@@@$$-%%@++++$@88888%=8@$$$$--%@++++$@",
"+$@@888%=8@@@$$-%%@++++$@88888%=8@$$$$--%@++++$@",
"+$@@888%=8@@@$$-%%@++++$@88888%=8@$$$$--%@++++$@",
"++--77$+-@++++%-++$++=++-7$$$$+-@++++%--+$+==++-",
"++--77$+-@++++%-++$++=++-7$$$$+-@++++%--+$+==++-",
"8-##88-+X@---....................-@@@888%@@@@8-#",
"8-##88-+X@---....................-@@@888%@@@@8-#",
"8-##88-+X@-..rr,,rr,,rrrr,,rr,,rr..@@888%@@@@8-#",
"8-##88-+X@-..rr,,rr,,rrrr,,rr,,rr..@@888%@@@@8-#",
"8-##88-+X@-..rr,,ee,,eeee,,ee,,rr..@@888%@@@@8-#",
"8-##88-+X@-..rr,,ee,,eeee,,ee,,rr..@@888%@@@@8-#",
"7=@@--@OO+%..rr11            11rr..@@-##8#*%%7=@",
"7=@@--@OO+%..rr11            11rr..@@-##8#*%%7=@",
"7=@@--@OO+%..rree            eerr..@@-##8#*%%7=@",
"7=@@--@OO+%..rree            eerr..@@-##8#*%%7=@",
"7=@@--@OO+%..rreeeeee    eeeeeerr..@@-##8#*%%7=@",
"7=@@--@OO+%..rreeeeee    eeeeeerr..@@-##8#*%%7=@",
"-8--##O+@@$..66rrrree    eerrrrrr..++-%%-@+++-8-",
"-8--##O+@@$..66rrrree    eerrrrrr..++-%%-@+++-8-",
"$%@@$$++*-#..2266rree    eerr6622..oo*@@o+=@@$%@",
"$%@@$$++*-#..2266rree    eerr6622..oo*@@o+=@@$%@",
"$%@@$$++*-###..2266eeeeeeee6622..#ooo*@@o+=@@$%@",
"$%@@$$++*-###..2266eeeeeeee6622..#ooo*@@o+=@@$%@",
"$%@@$$++*-###o*..............;;;;;;oo*@@o+=@@$%@",
"$%@@$$++*-###o*..............;;;;;;oo*@@o+=@@$%@",
"-#++++@@%8888..6666qqwwqqqq;;::99::;;$@@&o+@@-#+",
"-#++++@@%8888..6666qqwwqqqq;;::99::;;$@@&o+@@-#+",
"-#++++@@%88..33..ee66qq0066;;99qq99;;$@@&o+@@-#+",
"-#++++@@%88..33..ee66qq0066;;99qq99;;$@@&o+@@-#+",
"-#++++@@%88..66..qq55000055;;::99::;;$@@&o+@@-#+",
"-#++++@@%88..66..qq55000055;;::99::;;$@@&o+@@-#+",
"@$++XX+@X+---....<<44..>>>><<;;;;;;++X++*+#++@$+",
"@$++XX+@X+---....<<44..>>>><<;;;;;;++X++*+#++@$+",
"@@--##$8@XXXXX%......+@..44<<..@XXXXX%@@-+@++@@-",
"@@--##$8@XXXXX%......+@..44<<..@XXXXX%@@-+@++@@-",
"@@--##$8@XXXXX%@--+@@+@@-......@XXXXX%@@-+@++@@-",
"@@--##$8@XXXXX%@--+@@+@@-......@XXXXX%@@-+@++@@-",
"@@--##$8@XXXXX%@--+@@+@@-#$$$$8@XXXXX%@@-+@++@@-",
"@@--##$8@XXXXX%@--+@@+@@-#$$$$8@XXXXX%@@-+@++@@-",
"*@++@@@-%+XXX+-@@@---#*@+@@@@@-%+X+++-@@@--##*@+",
"*@++@@@-%+XXX+-@@@---#*@+@@@@@-%+X+++-@@@--##*@+",
"*@++@@@-%+XXX+-@@@---#*@+@@@@@-%+X+++-@@@--##*@+",
"*@++@@@-%+XXX+-@@@---#*@+@@@@@-%+X+++-@@@--##*@+",
"*@++@@@-%+XXX+-@@@---#*@+@@@@@-%+X+++-@@@--##*@+",
"@oXX++8*+$@@@-@o**-@@=@oX+8888*+$@---@oo*-@==@oX",
"@oXX++8*+$@@@-@o**-@@=@oX+8888*+$@---@oo*-@==@oX",
"@oXX++8*+$@@@-@o**-@@=@oX+8888*+$@---@oo*-@==@oX",
"%#==++%-@X+++**8--$$$@%#=+%%%%-@X+****88-$$@@%#=",
"%#==++%-@X+++**8--$$$@%#=+%%%%-@X+****88-$$@@%#=",
"%#==++%-@X+++**8--$$$@%#=+%%%%-@X+****88-$$@@%#=",
"%#==++%-@X+++**8--$$$@%#=+%%%%-@X+****88-$$@@%#=",
"%#==++%-@X+++**8--$$$@%#=+%%%%-@X+****88-$$@@%#=",
"%#==++%-@X+++**8--$$$@%#=+%%%%-@X+****88-$$@@%#=",
"++++XXo+@+$$$**8++%--++++Xoooo+@+$****88+%-+++++"
};
