/* XPM */
static char *_336881e0a5b478be60f793e9216042dVNniA483b7QDvtvV[] = {
/* columns rows colors chars-per-pixel */
"48 65 31 1 ",
"  c #313232",
". c gray20",
"X c #45720F",
"o c #45750F",
"O c #48730F",
"+ c #48750F",
"@ c #48770F",
"# c #48780F",
"$ c #4A7B0F",
"% c #4D7A0F",
"& c #4D7B0F",
"* c #4B7D0F",
"= c #4D7D0F",
"- c #135440",
"; c #196F53",
": c gray27",
"> c #515151",
", c #5D5D5D",
"< c #676767",
"1 c #686868",
"2 c #6A6A6A",
"3 c #6F6F6F",
"4 c gray50",
"5 c #4F820F",
"6 c #51800F",
"7 c #1E8868",
"8 c #22946E",
"9 c #2AB88A",
"0 c #2EC996",
"q c #929292",
"w c #A4A4A4",
/* pixels */
"=$XXXX=@X@O&@@$@66%O@&=$Xo==66%X@@@@@$@O6O@=6=$X",
"=$XX@@==X@&@@@$O66X@%=&$Xo6666@OO@&%@$O@=X@=6=$X",
"@$XXO@6&O==&&&==66@%%%X$X@6666%O==%%%=%%=$&&&&&X",
"@$XX@@6&@=&&&==&==@%%%&$X$6666%@===%==&&=O&%&@&X",
"@$XX@@6&%6%%&&==66@%%$@$XO6666%@6%%=%6=%=@%%&@$X",
"@$XX@O6&O===&&6%66@%$%@$X@6666%O6=%%%6=%=@%%$@$X",
"@$XXO@=&%=%%=%6%=6@&$%@$X@=666=@6%=%%6%%=$O$$@$X",
"@$XX@O==%==%%====&@O$$@$XO=666%@==%%=6%=&@&$&@*X",
"@&XX$o=&O=%%%%6===$&&&@$X$6666&o6%%%&&&&=@&&&X=X",
"@&@@&66$=6@@@%%=$$@@@XX%@6666=$*6=%%$&&==$@OO@&o",
"O&@@=6===6%@@$&=$$@O@O@&@=6666*==@&&$$==$@O@@O&@",
"O$@=665*=6@@@$&=$$@@O@O%==6666===@$&&$==$@@OO@$@",
"@$@@666*==@@@$@=$$@OO@O$@=66=6==6=&$$%==$@@O@O&o",
"O&@@666*==@@@&&=$$@@@O@&@=66=&%==@$&@$==$@O@O@$@",
"@O&=65&O==@O@O$&@O&OO=oO56%%$$@=@O@O@$&=OO@&=@@=",
"O@==6=&@=oO@O@$=O@$oo=$o=6%%&$O=&@O@O%&=@$@&*oO&",
"==@$=6=@X@===                    =@@$666&@@@===@",
"==@@66&@X@===                    &@@@666$@@@@==@",
"6==$6==@X@=  44qqwwww----wwwwqq44  @@=66$@@@@==$",
"6=@@6==OX@=  44qqwwww----wwwwqq44  &@666$@@@&6=@",
"==&@66=$X@=  qqwwww--0099--wwwwqq  @@=66$@@@@==@",
"==@@66=@X@=  qqwwww--0099--wwwwqq  @$=66$@@@$==$",
"6=@@==@OOO$  qqwwww--9988--wwwwqq  @@=$o=X&$$5*@",
"6=@@==@OO@$  qqwwww--9988--wwwwqq  @@=@=6$&$$5*@",
"65o#==@OOO$  qqwwwwww--;;--wwwwqq  @@=@$==&$$=*@",
"65o#==@OO@$  qqwwwwww--;;--wwwwqq  @@=@@=@&==6=o",
"5*$o==@OOO$  qqwwwwwwww--wwwwwwqq  @@=@$==&$*5*$",
"5*##=&@OO@$  qqwwwwwwww--wwwwwwqq  @@&$o&$&$*5*o",
"====$oOO@@$  44qqwwwwwwwwwwwwqq44  @@&$$=@@O$===",
"=6=&o$O@@@&  44qqwwwwwwwwwwwwqq44  @@&$$&@O@@=6&",
"&$o@&$@O&=$  <<44qqwwwwwwwwqq44<<  oX&@@o@=@@$$@",
"&*$o$&O@&&o  <<44qqwwwwwwwwqq44<<  oo&@@o@=@@O$@",
"%$@@&@O@&=o$@  <<44qqqqqqqq44<<  @ooo=o$o@&@@$$@",
"$$@@&$@O&&$o&  <<44qqqqqqqq44<<  @ooo&@ooO*@o&$@",
"$$@@$%O@&=@$oo=                ==$XoX&@@o@=@$&$@",
"O$@@$$@O&=@@$o&                &=@ooo&@@oo=@@$$X",
"&@@OO@@@$=666  44449900999944  ----O@$@@&X@@@=@O",
"=$O@@O@@$=666  44449900999944  ----O@&@@&oO@@=@@",
"=@@OO@@@=66. 11  qq44998844qq    ;;--$@@&X@@@=@@",
"=@O@@@@@=66  11  qq44998844qq    ;;--&@@&X@@@=@O",
"=$@O@O@@$=6  44  44338888334444  77--&X@&o@@@=@@",
"=@O@O@@@&=6. 44  44338888334444  77--$@@&o@@@=@@",
"@&XOXX@@X@===    ::>>  >>::..  77;;--X@O&O@OO@&O",
"@$@@XXO@X@=&=    ::>>  >>::..  77;;--XO@&@@@@@$@",
"@$==@@$=@XXXXX$      O@  22,,  ----XX$@@&@@O@@@=",
"@o==@$&=@XXXXX$      @@  22,,  ----XX$@@&@@@O@@=",
"@@==$@&=@XXXXX&@==O@@O@@=      @XXXXX$@@&O@O@@@=",
"@@==@&%6@XXXXX&@==@@@@@@&      @XXXXX$@@=@@@O@@=",
"@@==@@&==XXXXX$@==@@@@@@&$$$$&&@XXXXX$@@=O@@@@@=",
"@@==$@&&@XXXXX$@==O@@O@@=@&@$&=$XXXXX$@@=@@oO@@=",
"&@@O@@@=$OXXXO=@@@===$&@@@@@@@=$OXO@@&@@@=&@@&@O",
"&@O@@@@=$@XXX@=@@@===@&@O@@@@@=$@X@O@=@@@=&$@=@@",
"&$@O@@@=$@XXXO=@@@===X&@@@@@@@=&OXO@O=@@@==@X=@O",
"&XO@@@@=$OXXX@=@@@===$&@O@@@@@==@X@O@=@@@==@$&@@",
"&X@@@@@=$OXXX@=@@@===$&@@@@=@@=%@XO@@=@@@==$@&@@",
"$XXX@O==@&@@@=@o=&=@o*@oXO=====@&@&&=@oo&=@$*@oX",
"ooXXO@=&O$@@@&@o&&=@@*@oO@6666&O$@===@oo&&@**ooX",
"$oXX@@6&X&@@@&@o&&=@@*@oX@6=6=&@$@&&=@oo&=@=*$oX",
"$o=*O@$=@X@@$%&=&=&$$@$@&@$$=$=@X@&%&==6&$$@@$@*",
"$$=&@O$=@X@O@=%6&%$$&X$$$@$$$$=@XO&&&&66&$&@@$@*",
"$$$*@O$=@XO@O&%&==&&&@$$=@$$$$=@O@%==&==&$&@@$$*",
"$@**O@$&@O@O@&====$$$o$o=o$$$$=@X&%%&&66&$$@@$o*",
"$$**@O&&@XO@&%%6==$&&X$$&@$$$$&@XO=%%=66=&&@@$@*",
"$o**O@&&@X@O@%=6&&$$&@$@*O$$$&=@XO%%==66=$$@@$@=",
"@O@OXXo@@O$&$&&&@@&&=@O@OXoooo@@O&&&&&==@&=@@O@O"
};
