/* XPM */
static char *result[] = {
/* columns rows colors chars-per-pixel */
"48 65 36 1 ",
"  c #090909",
". c #313232",
"X c #45720F",
"o c #45750F",
"O c #48730F",
"+ c #48750F",
"@ c #48770F",
"# c #48780F",
"$ c #4B7A0F",
"% c #4A7B0F",
"& c #4D7A0F",
"* c #4D7B0F",
"= c #4B7D0F",
"- c #4D7D0F",
"; c #135440",
": c #196F53",
"> c gray27",
", c #484848",
"< c #515151",
"1 c #5D5D5D",
"2 c #646464",
"3 c #676767",
"4 c #686868",
"5 c #6A6A6A",
"6 c #6F6F6F",
"7 c gray50",
"8 c #4F820F",
"9 c #51800F",
"0 c #1C8061",
"q c #1E8868",
"w c #22946E",
"e c #2AB88A",
"r c #2BC393",
"t c #2EC996",
"y c #929292",
"u c #A4A4A4",
/* pixels */
"-%XXoo9#X+@@@@%+99X++9-%Xo9999#X+@@@@%++9X+99-%X",
"-%XXoo9#X+@@@@%+99X++9-%Xo9999#X+@@@@%++9X+99-%X",
"@%XX++9*+9****9*99+$$$@%X+9999*+9****9**9+$$$@%X",
"@%XX++9*+9****9*99+$$$@%X+9999*+9****9**9+$$$@%X",
"@%XX++9*+9****9*99+$$$@%X+9999*+9****9**9+$$$@%X",
"@%XX++9*+9****9*99+$$$@%X+9999*+9****9**9+$$$@%X",
"@%XX++9*+9****9*99+$$$@%X+9999*+9****9**9+$$$@%X",
"@%XX++9*+9****9*99+$$$@%X+9999*+9****9**9+$$$@%X",
"@%XX++9*+9****9*99+$$$@%X+9999*+9****9**9+$$$@%X",
"+$@@999%=9@@@$$-%%@++++$@99999%=9@$$$$--%@++++$@",
"+$@@999%=9@@@$$-%%@++++$@99999%=9@$$$$--%@++++$@",
"+$@@999%=9@@@$$-%%@++++$@99999%=9@$$$$--%@++++$@",
"+$@@999%=9@@@$$-%%@++++$@99999%=9@$$$$--%@++++$@",
"+$@@999%=9@@@$$-%%@++++$@99999%=9@$$$$--%@++++$@",
"++--88$+-@++++%-++$++=++-8$$$$+-@++++%--+$+==++-",
"++--88$+-@++++%-++$++=++-8$$$$+-@++++%--+$+==++-",
"9-##99-+X@---@................+X;;;;@999%@@@@9-#",
"9-##99-+X@---@................+X;;;;@999%@@@@9-#",
"9-##99-+X@--..,,uu,,uu,,uu,,uu..rree;;99%@@@@9-#",
"9-##99-+X@--..,,uu,,uu,,uu,,uu..rree;;99%@@@@9-#",
"9-##99-+X@--..,,yy,,yy,,yy,,uu77..eeww;;%@@@@9-#",
"9-##99-+X@--..,,yy,,yy,,yy,,uu77..eeww;;%@@@@9-#",
"8=@@--@OO+%%..            22uu77..ttww;;9#*%%8=@",
"8=@@--@OO+%%..            22uu77..ttww;;9#*%%8=@",
"8=@@--@OO+%%..            yy7777..ww::;;9#*%%8=@",
"8=@@--@OO+%%..            yy7777..ww::;;9#*%%8=@",
"8=@@--@OO+%%..yyyy    yyyy777733..;;00;;9#*%%8=@",
"8=@@--@OO+%%..yyyy    yyyy777733..;;00;;9#*%%8=@",
"-9--##O+@@$$..uuyy    yy77773333..++;;%%-@+++-9-",
"-9--##O+@@$$..uuyy    yy77773333..++;;%%-@+++-9-",
"$%@@$$++*-##..uuyy    77773333..-#ooo*@@o+=@@$%@",
"$%@@$$++*-##..uuyy    77773333..-#ooo*@@o+=@@$%@",
"$%@@$$++*-##..uuuu7777773333..+*-#ooo*@@o+=@@$%@",
"$%@@$$++*-##..uuuu7777773333..+*-#ooo*@@o+=@@$%@",
"$%@@$$++*-###o..............+++*-#ooo*@@o+=@@$%@",
"$%@@$$++*-###o..............+++*-#ooo*@@o+=@@$%@",
"-#++++@@%9;;;;;;77eettee7777..@%99+++$@@&o+@@-#+",
"-#++++@@%9;;;;;;77eettee7777..@%99+++$@@&o+@@-#+",
"-#++++@@;;::qq::;;77ee77yy..44..99+++$@@&o+@@-#+",
"-#++++@@;;::qq::;;77ee77yy..44..99+++$@@&o+@@-#+",
"-#++++@@;;qqeeqq;;66ww66ee..77..99+++$@@&o+@@-#+",
"-#++++@@;;qqeeqq;;66ww66ee..77..99+++$@@&o+@@-#+",
"@$++XX+@;;::qq::;;>><<<<>>....@X+-+++X++*+#++@$+",
"@$++XX+@;;::qq::;;>><<<<>>....@X+-+++X++*+#++@$+",
"@@--##$9@X;;;;;;1155..5511..$$9@XXXXX%@@-+@++@@-",
"@@--##$9@X;;;;;;1155..5511..$$9@XXXXX%@@-+@++@@-",
"@@--##$9@XXXXX......@+......$$9@XXXXX%@@-+@++@@-",
"@@--##$9@XXXXX......@+......$$9@XXXXX%@@-+@++@@-",
"@@--##$9@XXXXX%@--+@@+@@-#$$$$9@XXXXX%@@-+@++@@-",
"@@--##$9@XXXXX%@--+@@+@@-#$$$$9@XXXXX%@@-+@++@@-",
"*@++@@@-%+XXX+-@@@---#*@+@@@@@-%+X+++-@@@--##*@+",
"*@++@@@-%+XXX+-@@@---#*@+@@@@@-%+X+++-@@@--##*@+",
"*@++@@@-%+XXX+-@@@---#*@+@@@@@-%+X+++-@@@--##*@+",
"*@++@@@-%+XXX+-@@@---#*@+@@@@@-%+X+++-@@@--##*@+",
"*@++@@@-%+XXX+-@@@---#*@+@@@@@-%+X+++-@@@--##*@+",
"@oXX++9*+$@@@-@o**-@@=@oX+9999*+$@---@oo*-@==@oX",
"@oXX++9*+$@@@-@o**-@@=@oX+9999*+$@---@oo*-@==@oX",
"@oXX++9*+$@@@-@o**-@@=@oX+9999*+$@---@oo*-@==@oX",
"%#==++%-@X+++**9--$$$@%#=+%%%%-@X+****99-$$@@%#=",
"%#==++%-@X+++**9--$$$@%#=+%%%%-@X+****99-$$@@%#=",
"%#==++%-@X+++**9--$$$@%#=+%%%%-@X+****99-$$@@%#=",
"%#==++%-@X+++**9--$$$@%#=+%%%%-@X+****99-$$@@%#=",
"%#==++%-@X+++**9--$$$@%#=+%%%%-@X+****99-$$@@%#=",
"%#==++%-@X+++**9--$$$@%#=+%%%%-@X+****99-$$@@%#=",
"++++XXo+@+$$$**9++%--++++Xoooo+@+$****99+%-+++++"
};
