/* XPM */
static char *_16358aedd974675cd7701422edfa2ecWvSD2PxmmFlth3Dt[] = {
/* columns rows colors chars-per-pixel */
"48 65 35 1 ",
"  c #090909",
". c #313232",
"X c #45720F",
"o c #45750F",
"O c #48730F",
"+ c #48750F",
"@ c #48770F",
"# c #48780F",
"$ c #4A7B0F",
"% c #4D7A0F",
"& c #4D7B0F",
"* c #4B7D0F",
"= c #4D7D0F",
"- c #135440",
"; c #196F53",
": c gray27",
"> c #484848",
", c #515151",
"< c #5D5D5D",
"1 c #646464",
"2 c #676767",
"3 c #686868",
"4 c #6A6A6A",
"5 c #6F6F6F",
"6 c gray50",
"7 c #4F820F",
"8 c #51800F",
"9 c #1C8061",
"0 c #1E8868",
"q c #22946E",
"w c #2AB88A",
"e c #2BC393",
"r c #2EC996",
"t c #929292",
"y c #A4A4A4",
/* pixels */
"=$XXXX=@X@O&@@$@88O@O=&$Xo==88%X$@@@@&@O8O$===$X",
"=$XX@@==X@&@@@$O88O@$=&$Xo8888%OO@%@@%O@=O@&8=$X",
"@$XXO@8&O==&&&==88O&&&@$O@88=8&@&=%%%8&&=@%&=%%X",
"@$XX@@8&@=&&&==&=&O%&&@$X$88=&&O===%==&&&O$%%@&X",
"@$XX@@8&%8%%&&==88$&%$@$XO8888&@8%%=%8=%8@&&&@$X",
"@$XX@O8&O===&&8%88@&$&@$X@8888&O8=%%%8=%=@&&$@$X",
"@$XXO@=&%=%%=%8%88X%$O@$X@=888=@8%=%%8%%=@@$$@$X",
"@$XX@O==%==%%=====@$&&@$XO=888%%==%%=8%=&@&$&@*X",
"@&XX$o=&O=%%%%8===$&&%@$O$888=&o8&&&%==&=@%&&o*X",
"@&@@&88$=8@@@%%=$$@@@O@&@8888=**8=&&&@==&@@OO@&X",
"O&@@=8===8%@@$&=$$@@O@OO@&8888$==@%$$$==$@O@@O&@",
"O$@=887*=8@@@$&=$$@O@O@$==8888==8X%$&$==$@@OO@$@",
"@$@@888*==@@@$@=$$@@O@X&@888=8==8$@&&&==$@O@O@&X",
"O&@@888*==@@@&&=$$@O@O@$@=88==%==@&%$&==$@@o@O$@",
"@O&=87&O==@O@O$&O@$@O&O@=7&&$$@=@@O@@$&=O$O=&O@=",
"O@==8=&@=oO@O@$=@X&O@*@@=8&&&$O=@@@OO$&=@&@$=@O=",
"==@$=8=@X@===@................OX----=888&@@@===@",
"==@@88&@X@===@................@X----o888$@@@@==@",
"8==$8==@X@==..>>yy>>yy>>yy>>yy..eeww--88$@@@@==$",
"8=@@8==OX@==..>>yy>>yy>>yy>>yy..eeww--88$@@@&8=@",
"==&@88=$X@&=..>>tt>>tt>>tt>>yy66..wwqq--$@@@@==@",
"==@@88=@X@==..>>tt>>tt>>tt>>yy66..wwqq--$@@@$==$",
"8=@@==@OOO$$..            11yy66..rrqq--=X&$$7=o",
"8=@@==@OO@$$..            11yy66..rrqq--8$&$$7*$",
"87o#==@OOO$$..            tt6666..qqqq--8$&$$=*o",
"87o#==@OO@$$..            tt6666..qqqq--=@&==8=o",
"7*$o==@OOO$$..tttt    tttt666622..qq;;--==&$*7*$",
"7*##=&@OO@$$..tttt    tttt666622..qq;;--&$&$*7*o",
"====$oOO@@&$..yytt    tt66662222..--;9--&@@O$===",
"=8=&o$O@@@$&..yytt    tt66662222..--00--&@O@@=8=",
"&$o@&$@O&=$o..yytt    66662222..=$oo--@@o@&@@&$@",
"&*$o$&O@&&o$..yytt    66662222..=ooo--@@o@=@@@$@",
"&$@@$$@O&=o$..yyyy6666662222..@&=$ooo=@@o@$$@$$@",
"$$@@&&O@&&$o..yyyy6666662222..O&=@ooo&@@X@=oX&$@",
"&$@@$@@O&=@$@o..............@OO&=@ooX&@@o$=@@$$@",
"$$@X&&O@&=@@$o..............O@@&=@ooo&@@Xo*@@&$@",
"&@@@@O@@&=------66wwrrww6666..@$8=O@@&o@&X@@@=@O",
"=@@OO@@@$=------66wwrrww6666..@$8=@O@$@@&oO@@=@@",
"=@O@@O@@--;;00;;--66ww66tt..33..88O@O$@@&X@@@=@@",
"=@@OO@@=--;;00;;--66ww66tt..33..88@O@&@@&X@@@=@O",
"=@O@O@@@--00ww00--,,,,55ww..66..88$@@$@@&X@@@=@@",
"=@@O@O@@--00ww00--,,,,55ww..66..88@OO&@@&XO@@=@@",
"@&o@XXO@--;;00;;--::..,,::....oX@&O@@XO@&@@@O@&O",
"@$@OXX@@--;;00;;--::..,,::....@XO&@OOX@O&O@@@@$@",
"@$==@$$=@X------......44<<..&%=@OXXXX&@@&@@O@@@=",
"@o==@@&=@X------......44<<..&%8@XXXXX$@@=O@@O@@=",
"@@==@@&=@XXXXX$@&=O@@O......&$8%XXXXX$@@=O@O@@@=",
"@@=&$&&8@XXXXX$@==@@@@......&$=@XXXXX$@@=@@@O@@=",
"@@==@@&==XXXXX$@==@@@@@@&$$$$&&@XXXXX$@@&@@@@@@=",
"@@==$@&&@XXXXX$@==O@@O@@=@&@$&=$XXXXX$@@=O@oO@@&",
"&@@O@@@=$OXXXO=@@@===$&@@@@@@@=$@X@O@&@@@==$@&@O",
"&@O@@@@=$@XXX@=@@@===@&@O@@@@@=$OXO@@=@@@==X$&@@",
"&$@O@@@=$@XXXO=@@@===X&@@@@@@@=&@X@OO=@@@==@$&o@",
"&XO@@@@=$OXXX@=@@@===$&@O@@@@@==OXO@@=@@@=&$X&$o",
"&X@@@@@=$OXXX@=@@@===$&@@@@=@@=%@X@O@&@@$==$$&@@",
"$XXX@O==@&@@@=@o=&=@o*@oXO=====@$@===@oX&=o$=@XX",
"ooXXO@=&O$@@@&@o&&=@@=@oO@8=8=&@@@===@oo&&$=*ooX",
"$oXX@@8&X&@@@&@o&&=@@*@oX$8=8&&@&@&&=@oo&&o=$$oX",
"$o=*O@$=@X@@$%&=&=&$$@$@&@$$===@X@%%%==8&$&@o$@$",
"$$=&@O$=@X@O@=%8&&$$&X$$&@$$$$=@X@%%%%88&&$@$$$$",
"$$$*@O$=@XO@O&%&==&&&@$$&o*$$$=@O@%====8=$$@o$$*",
"$@**O@$&@O@O@&====$$$o$o=o$$$$=@X$%%%%88&&&o$$o*",
"$$**@O&&@XO@&%%8&=$&&o$$&@$$$$&@XO=%%=88=$$@@$@*",
"$o**O@&&@X@O@%=8&&$$&@$o=O$$&&=@XO%%==88&$&@@$@&",
"@O@OXXo@@O$&$&&&@@&&=@O@OXoooo@@O&&&&&==@&=@@O@O"
};
