/* XPM */
static char *e5c00f65e2a248dfbbac8044eb76b98e2FcEl9N17pU9lmzg[] = {
/* columns rows colors chars-per-pixel */
"48 65 35 1 ",
"  c #090909",
". c #313232",
"X c #45720F",
"o c #45750F",
"O c #48730F",
"+ c #48750F",
"@ c #48770F",
"# c #48780F",
"$ c #4A7B0F",
"% c #4D7A0F",
"& c #4D7B0F",
"* c #4B7D0F",
"= c #4D7D0F",
"- c #135440",
"; c #196F53",
": c gray27",
"> c #484848",
", c #515151",
"< c #5D5D5D",
"1 c #646464",
"2 c #676767",
"3 c #686868",
"4 c #6A6A6A",
"5 c #6F6F6F",
"6 c gray50",
"7 c #4F820F",
"8 c #51800F",
"9 c #1C8061",
"0 c #1E8868",
"q c #22946E",
"w c #2AB88A",
"e c #2BC393",
"r c #2EC996",
"t c #929292",
"y c #A4A4A4",
/* pixels */
"=$XXXX=@X@O&@@$@88+#O==oo#=888#X+##+#%+#8++88==X",
"=$XX@@==X@&@@@$O88O++8==X+8888#OO##+#%++=X#=8=#X",
"@$XXO@8&O==&&&==88##%%#=X+8888%O=%===8%%8#%#%#%X",
"@$XX@@8&@=&&&==&==+%%%##X#8888%#8=%%%8%%8+#%%+$o",
"@$XX@@8&%8%%&&==88#%%##oXX8888%+8%%%%8=%8#%%=#$X",
"@$XX@O8&O===&&8%88+%#=#=X#8888%+8%====%==#%%###X",
"@$XXO@=&%=%%=%8%88+%=%#%XO=888=#8=%%=8%=8+#%%#=X",
"@$XX@O==%==%%===8=##=###X#8888%+8%=%%8%%=#=#%##X",
"@&XX$o=&O=%%%%8=88#%#%##X#8888=o8%=%%8=%8+%#%+#X",
"@&@@&88$=8@@@%%=#$#+###%#88888o78#%%%===####++%#",
"O&@@=8===8%@@$&=#=#+O++%#=8888$$8#%#%#==##++#O%#",
"O$@=887*=8@@@$&=%##++++##88888$78##%#%===+++#+##",
"@$@@888*==@@@$@==##++++=#88888$$8##%#%==###+++%#",
"O&@@888*==@@@&&=%###+++#+88888#=8#%%#%==%#X+++#+",
"@O&=87&O==@O@O$&++%O+###=8%%%%#=++++#===#%#=%+#=",
"O@==8=&@=oO@O@$=#+###=#o=8%##%X$##++##==+#+=$#O=",
"==@$=8=@X#==----#=................+#+888###+#8=#",
"==@@88&@X+==----#$................###888=+###8=#",
"8==$8==@X#--wwee..yy>>yy>>yy>>yy>>..#888=o+##8=#",
"8=@@8==OX#--wwee..yy>>yy>>yy>>yy>>..+888####+8=#",
"==&@88=$--qqww..66yy>>tt>>tt>>tt>>..#888=####8=#",
"==@@88=@--qqww..66yy>>tt>>tt>>tt>>..#888##+##==#",
"8=@@==@O--qqrr..66yy11            ..#=##8#%$77=#",
"8=@@==@O--qqrr..66yy13            ..#=##8#=##7$#",
"87o#==@O--;0--..6666tt            ..#=##8#%=#7$o",
"87o#==@O--0;--..6666tt            ..+=##8#=#$77#",
"7*$o==@O##--=#..236666tttt    tttt..#=##8#=%=77#",
"7*##=&@O+$--#+..236666tttt    tttt..#=##8#%#o8$o",
"====$oOO#+%#=+..22226666tt    ttyy..+=%#=####=8=",
"=8=&o$O@###%%#..22226666tt    ttyy..#%$==++X#=8=",
"&$o@&$@O%=###X##..22226666    ttyy..#%###X=++#=#",
"&*$o$&O@%=##+#=#..22226666    ttyy..o%+#X#=##%#o",
"&$@@&@O@&=@@@@&@X#..2222666666yyyy..o=#+X#$###$#",
"@$@@@&@O=&$@@@&@o+..2222666666yyyy..o###+X=o####",
"=@@@&&O@&&@@@@&@oo##............------+###=##%##",
"&*@@&@@O&=@@@@&@oo#$............------+#X#$+#%=#",
"=$o@O@@@*888=@&@#%..6666wwrrww--;;00;;--%#+##=++",
"=@@X@O@@@=88&@&@%%..6666wwrrww--;;00;;--%XX#+=#+",
"=@@OO@o$=888=$@@..44..tt66ww66--00ww00--%####=##",
"=@O@@@@@$888&@&@..42..tt66ww5t--00ww00--%X++#=+O",
"=@@O@O@@@=888$&@..66..ww,,,,55--;;00;;--%#X##=+#",
"&$O@O@@@&=88=@&@..66..ww,,,,55--;;00;;--%X#+#%##",
"o@@OXX@@X@===@O@&&....::44..::::------++%##+#+%+",
"$&@@XXO@X@=&=@XO&&....::44..::::------+#%#++#+#+",
"@@==@@&=@XXXXX@@==O@........<<<<..XXX#+#=+#O+##=",
"@$==@@&8@XXXXX=o=&@@........<<<<..XXX=##=+#+O##=",
"@@==@@$=@XXXXX=$==@@@@o@=##%......XXX###=++O+##=",
"@@==@$%8$XXXXX@@==X@@@@@=#=%......XXX$##=+##+++=",
"@@==$@&=&XXXXX@@==+##++#=##%%#8#XXXXX$#+%+###++=",
"@@==@@&=@XXXXX&@==++++##=##%#%8#XXXXX###=++++##=",
"&@@@@@@=@@XXX@=@##===#%+######==+X++#=+##==#+%++",
"&@@O@@@==@XXX@=@+#===#=#++###o=#+X+X#=###==##=#+",
"&@@O@@@=$@XXX@&@+#===#%#++#+##==+X++#%+++==##=#+",
"%@O@@@@=&@XXXO=@##===#=####+#+=#+X++#=###==##=##",
"%@@X@@@=o@XXX@=@#+===###O##%#%=%#X+++%#+#==#o#+#",
"@@XX@O&=@&@@@@@@=%=#+=+oX+===8%+%#=%=#o#%=+==#XX",
"@XXX@@==@&@@@&@@%==##=#oX#8888%##+===#+#==#=$#oX",
"@@XXO$=&@@@@@&@@%==+#$#+X#888=%#%#===#oX==+=$##X",
"@$==@O&=@XO@@=@===#%####=#7o=%=#X+%%=%=8=####=o$",
"=o=&O@$=@X@OO&=8===%%#=#=Oo=$#=#X#%%%=88=%%+###7",
"##**@O@=@OO@@&&===%#=#=#=X#=$#=#X+%=%%88=%##o7#$",
"*#**O@==@O@OO&====#=##o#$##$=#=#X#%%=%88===####$",
"*#**@O&&@XO@$%%8==#%=#7o=X=o#==+XX=%%%88=#%####=",
"##**@@@&@X@O@%=8===#%##o=#$7=#=#X#%%==88=%###$#=",
"o$@OXX@X@@@&&&&=@@@==@@O@XX@X@@@X@=&&===&&&@@O@O"
};
