/* XPM */
static char *_ed2809a8f3f4d09cd5657b0eee118949iJcmw21dkXBNRjs[] = {
/* columns rows colors chars-per-pixel */
"48 65 35 1 ",
"  c #090909",
". c #313232",
"X c #45720F",
"o c #45750F",
"O c #48730F",
"+ c #48750F",
"@ c #48770F",
"# c #48780F",
"$ c #4B7A0F",
"% c #4A7B0F",
"& c #4D7A0F",
"* c #4D7B0F",
"= c #4B7D0F",
"- c #4D7D0F",
"; c #135440",
": c #196F53",
"> c gray27",
", c #484848",
"< c #515151",
"1 c #5D5D5D",
"2 c #646464",
"3 c #686868",
"4 c #6A6A6A",
"5 c #6F6F6F",
"6 c gray50",
"7 c #4F820F",
"8 c #51800F",
"9 c #1C8061",
"0 c #1E8868",
"q c #22946E",
"w c #2AB88A",
"e c #2BC393",
"r c #2EC996",
"t c #929292",
"y c #A4A4A4",
/* pixels */
"-%XXXX-@X@O*@@%@88@@@-=*oo=-88*OOOOO*%@O-O$88-%X",
"-%XX@@--X@*@@@%O88OX$-%%Oo8888$Oo*$$O%O@-OO-8-%X",
"@%XXO@8*O--***--88O%*$O@O@8888*@=*----=*8$$$*O*X",
"@%XX@@8*@-***--*8-O**$**O@88--&O--***=**-O$$**%O",
"@%XX@@8*&8&&**--88$**%*%XX8888*@-***-8*-8$$$%@@X",
"@%XX@O8*O---**8&88O*@*o%Oo8888*@-****-**-@$$*@%X",
"@%XXO@-*&-&&-&8&88O%*%o%Oo=888-O8-*----*8@%%%@%X",
"@%XX@O--&--&&-----@*@*o%Xo8888*@8-*-*-**-X**%X*X",
"@*XX%o-*O-&&&&8-7-@***@*O$887==o8&&&*==*-O***X%X",
"@*@@*88%-8@@@&&-%%*o@XO**888-7*%8&&&*@---$@OO@*%",
"O*@@-8---8&@@%*-%%*OO@O@O-8888%%*&&&**--%XO@@O@*",
"O%@-887=-8@@@%*-%%X@@O@*@88888*7-&****--%*@O@X*@",
"@%@@888=--@@@%@-%%@OO@O%*88888*%-*$$$$--%@O@O@%X",
"O*@@888=--@@@**-%*o@@O@*o-88--**-$**$$-=%o@o@O**",
"@O*-87*O--@O@O%*@O=OO%@O*7**%$@=*OOOX%*=@*X**o@=",
"O@--8-*@-oO@O@%-O@*@o=O@=7****O=O$$O@**=O*@%%*O=",
"--@%-8-@X%*=;;;;**................X**888*%%X*8=@",
"--@@88*@X@==;;;;%%................@@@888@@o*o--@",
"8--%8--@XO;;wwee..yy,,yy,,yy,,yy,,..@-88%@X@*=-%",
"8-@@8--OX%;;wwee..yy,,yy,,yy,,yy,,..*888%o*@*-=@",
"--*@88-%;;qqww..66yy,,tt,,tt,>tt,,..o-78%o%X@--@",
"--@@88-@;;qqww..66yy,,tt,,tt,>tt,,..*=-8%**@*7-%",
"8-@@--@O;;qqrr..66yy22            ..**@@-*%%%7%o",
"8-@@--@O;;qqrr..66yy22            ..@=@%7X*%%7%%",
"87o#--@O;;::qq..6666tt            ..*=*o7**%%-%@",
"87o#--@O;;::qq..6666tt            ..X=@*=**%*7%%",
"7=%o--@O;;:0;;..336666tttt    tttt..@=@@-**%%7%o",
"7=##-*@O;;0:;;..336666tttt    tttt..*=o%***%%7%*",
"----%oOO=%;;%@..32336666tt    ttyy..X=***oo@$-7=",
"-8-*o%O@#%;;%@..33236666tt    ttyy..@=%%**@OO--%",
"*%o@*%@O*=%@Oo*@..33336666    ttyy..X*%Xo@%%**%@",
"*=%o%*O@*=@@%o*o..23236666    ttyy..o@*@oo%X@*@@",
"%%%@%%O@*=o%@o*Ooo..2333666666yyyy..o*o*o@*o%%%@",
"*%Oo**@O*=%X%o*%oo..3333666666yyyy..o=*ooO%*X*%*",
"%%O%%@O@*-@%Xo*@ooo*..............ooo*X@o@%%%%%o",
"%%@X**@o*-%o%o*oooo$..............ooo=X%oX%@X*%@",
"*%X@@O%%*7-88$****..6666wwrrww66;;;;;;@**X@o%**@",
"*@O@O@@O*=88-O*O**..6666wwrrww66;;;;;;*X*oO*X%@@",
"*%@O@OX*-888-$*X..43..tt66ww66;;::00::;;*ooX*%Xo",
"=@O@O@O$=888=@%%..33..tt66ww66;;::00::;;*X@*@=*O",
"=@@O@O@%*-888@*@..66..ww55qq55;;00ww00;;%oo@X=*@",
"**O@O@@X-=88-@*O..66..ww55qq55;;00ww00;;*XX*%*X@",
"o%OOXXO%XO=*-OO@**....>><<<<>>;;::00::;;*@o@@**@",
"*%O@XXO@X@=*-$XO**....>><<<<>>;;::00::;;*X*OOO$@",
"@o--@%%=%XXXXX%@-=@o..1144..4411;;;;;;o**@*X@OX=",
"%*--%X*7@XXXXX%X-=O%..1143..4411;;;;;;o*=O@OX**-",
"O@=-*$*=OXXXXX%%--@O......%*......XXX@@o=O*@@@%=",
"X%=*X*--%XXXXX*@--Oo......**......XXX*o%=@X@@OX=",
"@@*=@%%=*OXXXX%@--@*X@oo=@***%*oXXXOX@@o=@O@X%*=",
"%o-=%X%=OXXXXX%%==O@*O*X=*$%*@-*XXXOX*%%=X*o@@o*",
"*@@O@%@=*OXXXO*o*o--%X=*O@X*@*=%XOO@o=*X@*=*O=X@",
"**O@o*O=*@XXX@*@X*--=**@@o%Xo*=%oX@O@=@X*-=X***@",
"*OO@%X**%@XXXO=%X@=-=**oO%oo*X*%@Xo@O=@*X--***oO",
"**@O%@@=%XXXX@=o*o=-=o*%@o*oo%*%OO@O@=*X@==@o*o@",
"*@O@O@%=%@XXX@=@O*===@*oO@**@*=*OOO@@**o*=-@*%%o",
"ooXX@O**X*%@O=*O*--o**%oOo*--8*@*@=*=ooX%%**=ooX",
"%oXX@O-*O*@%O=*o-***X=XoOO8-8-*@%O=--*Xo***=%*oX",
"ooXoO$8=@%X%@*oo*--@*%%oO$878-*X%*=*-@oo==o*%@oX",
"%@=*@O*=OXO@@**-==$$%%%@*o%%-*-*X@****=-*%*@@%@%",
"%%*-O@*-@X@O@*-8**$$*X*o=o%%%*=@XX*$--88*%*X@%%%",
"%%%=@O%=@XOOO**---*%*o%@*@*%%%=XOO****-8=**%o%@7",
"%X%*O@%=*XO$@*---=**%%%@=o%%%%=*O$***-88**%Xo%%%",
"%@7%@O*=XXOO$**8==*%*o%@*@%%%%*@OO***-88-**%%%@%",
"%%%%O@%=@X$OO**8**%**o%%%O%%%*=oOO****88=@%o@%@%",
"o@@OoXo@O@*%%***@O===@O@OOXooo@@O*=***--$*-@O@O@"
};
