/* XPM */
static char *result[] = {
/* columns rows colors chars-per-pixel */
"48 65 20 1 ",
"  c #191919",
". c gray20",
"X c #45720F",
"o c #45750F",
"O c #48730F",
"+ c #48750F",
"@ c #48770F",
"# c #48780F",
"$ c #4B7A0F",
"% c #4A7B0F",
"& c #4D7A0F",
"* c #4D7B0F",
"= c #4B7D0F",
"- c #4D7D0F",
"; c #4C4C4C",
": c #E91315",
"> c #CE0237",
", c #EA5F56",
"< c #4F820F",
"1 c #51800F",
/* pixels */
"-%XXoo1#X+@@@@%+11X++1-%Xo1111#X+@@@@%++1X+11-%X",
"-%XXoo1#X+@@@@%+11X++1-%Xo1111#X+@@@@%++1X+11-%X",
"@%XX++1*+1****1*11+$$$@%X+1111*+1****1**1+$$$@%X",
"@%XX++1*+1****1*11+$$$@%X+1111*+1****1**1+$$$@%X",
"@%XX++1*+1****1*11+$$$@%X+1111*+1****1**1+$$$@%X",
"@%XX++1*+1****1*11+$$$@%X+1111*+1****1**1+$$$@%X",
"@%XX++1*+1****1*11+$$$@%X+1111*+1****1**1+$$$@%X",
"@%XX++1*+1****1*11+$$$@%X+1111*+1****1**1+$$$@%X",
"@%XX++1*+1****1*11+$$$@%X+1111*+1****1**1+$$$@%X",
"+$@@111%=1@@@$$-%%@++++$@11111%=1@$$$$--%@++++$@",
"+$@@111%=1@@@$$-%%@++++$@11111%=1@$$$$--%@++++$@",
"+$@@111%=1@@@$$-%%@++++$@11111%=1@$$$$--%@++++$@",
"+$@@111%=1@@@$$-%%@++++$@11111%=1@$$$$--%@++++$@",
"+$@@111%=1@@@$$-%%@++++$@11111%=1@$$$$--%@++++$@",
"++--<<$+-@++++%-++$++=++-<$$$$+-@++++%--+$+==++-",
"++--<<$+-@++++%-++$++=++-<$$$$+-@++++%--+$+==++-",
"1-##11-+X@---@11%%@@@@1-#1----+X@-@@@111%@@@@1-#",
"1-##11-+X@---@11%%;;;;;;;;;;;;+X@-@@@111%@@@@1-#",
"1-##11-+X@---@11%%;;;;;;;;;;;;+X@-@@@111%@@@@1-#",
"1-##11-+X@---@11;;............;;@-@@@111%@@@@1-#",
"1-##11-+X@---@11;;............;;@-@@@111%@@@@1-#",
"1-##11-+X@---@;;................  @@@111%@@@@1-#",
"<=@@--@OO+%%%@;;................  @@@-##1#*%%<=@",
"<=@@--@OO+%%%@;;..........>>::..  @@@-##1#*%%<=@",
"<=@@--@OO+%%%@;;..........>>::..  @@@-##1#*%%<=@",
"<=@@--@OO+%%%@;;..........::,,..  @@@-##1#*%%<=@",
"<=@@--@OO+%%%@;;..........::,,..  @@@-##1#*%%<=@",
"<=@@--@OO+%%%@;;................  @@@-##1#*%%<=@",
"-1--##O+@@$$$+;;................  +++-%%-@+++-1-",
"-1--##O+@@$$$+;;................  +++-%%-@+++-1-",
"$%@@$$++*-###o;;................  ooo*@@o+=@@$%@",
"$%@@$$++*-###o*@;;............  -#ooo*@@o+=@@$%@",
"$%@@$$++*-###o*@;;............  -#ooo*@@o+=@@$%@",
"$%@@$$++*-###o*@oo;;........  +*-#ooo*@@o+=@@$%@",
"$%@@$$++*-###o*@oo;;........  +*-#ooo*@@o+=@@$%@",
"$%@@$$++*-###o*@;;............;;-#ooo*@@o+=@@$%@",
"-#++++@@%1111+$@;;............;;11+++$@@&o+@@-#+",
"-#++++@@%1111+;;................;;+++$@@&o+@@-#+",
"-#++++@@%1111+;;................;;+++$@@&o+@@-#+",
"-#++++@@%1111+;;..  ........  ..;;+++$@@&o+@@-#+",
"-#++++@@%1111+;;..  ........  ..;;+++$@@&o+@@-#+",
"-#++++@@%1111+$@    ........    11+++$@@&o+@@-#+",
"@$++XX+@X+---+X+    ........    +-+++X++*+#++@$+",
"@$++XX+@X+---+X+**  ..    ..  @X+-+++X++*+#++@$+",
"@@--##$1@XXXXX%@--  ..    ..  1@XXXXX%@@-+@++@@-",
"@@--##$1@XXXXX%@--    @@-#    1@XXXXX%@@-+@++@@-",
"@@--##$1@XXXXX%@--    @@-#    1@XXXXX%@@-+@++@@-",
"@@--##$1@XXXXX%@--+@@+@@-#$$$$1@XXXXX%@@-+@++@@-",
"@@--##$1@XXXXX%@--+@@+@@-#$$$$1@XXXXX%@@-+@++@@-",
"@@--##$1@XXXXX%@--+@@+@@-#$$$$1@XXXXX%@@-+@++@@-",
"*@++@@@-%+XXX+-@@@---#*@+@@@@@-%+X+++-@@@--##*@+",
"*@++@@@-%+XXX+-@@@---#*@+@@@@@-%+X+++-@@@--##*@+",
"*@++@@@-%+XXX+-@@@---#*@+@@@@@-%+X+++-@@@--##*@+",
"*@++@@@-%+XXX+-@@@---#*@+@@@@@-%+X+++-@@@--##*@+",
"*@++@@@-%+XXX+-@@@---#*@+@@@@@-%+X+++-@@@--##*@+",
"@oXX++1*+$@@@-@o**-@@=@oX+1111*+$@---@oo*-@==@oX",
"@oXX++1*+$@@@-@o**-@@=@oX+1111*+$@---@oo*-@==@oX",
"@oXX++1*+$@@@-@o**-@@=@oX+1111*+$@---@oo*-@==@oX",
"%#==++%-@X+++**1--$$$@%#=+%%%%-@X+****11-$$@@%#=",
"%#==++%-@X+++**1--$$$@%#=+%%%%-@X+****11-$$@@%#=",
"%#==++%-@X+++**1--$$$@%#=+%%%%-@X+****11-$$@@%#=",
"%#==++%-@X+++**1--$$$@%#=+%%%%-@X+****11-$$@@%#=",
"%#==++%-@X+++**1--$$$@%#=+%%%%-@X+****11-$$@@%#=",
"%#==++%-@X+++**1--$$$@%#=+%%%%-@X+****11-$$@@%#=",
"++++XXo+@+$$$**1++%--++++Xoooo+@+$****11+%-+++++"
};
