/* XPM */
static char *_6e97097e4b04cfaec444f32db8762fag4ka3UYaVysAbPtw[] = {
/* columns rows colors chars-per-pixel */
"48 65 25 1 ",
"  c black",
". c #401F0A",
"X c #4A240F",
"o c #592C0F",
"O c #663010",
"+ c #7B3A13",
"@ c #45720F",
"# c #45750F",
"$ c #48750F",
"% c #48770F",
"& c #48780F",
"* c #4A7B0F",
"= c #4D7B0F",
"- c #4D7D0F",
"; c #8B4117",
": c #99612F",
"> c #AA692F",
", c #B87D4B",
"< c #4F820F",
"1 c #51800F",
"2 c #DADC23",
"3 c #F3F427",
"4 c #FBF92B",
"5 c #C68852",
"6 c #FEFB7B",
/* pixels */
"-*@@$$=%@%$$=%=%11%$$=-*@#--11-$$$%%%=$$-%%-1-=@",
"-*@@%%-=@%=%%%*$11%%%-==@#1111=$$%=%%=$$=%$=1-=@",
"%*@@%$-=%--=====-1%===%=$%1111=$====--==-%==-==@",
"%*@@%%1=$====--=-=$===%=@*11--=$=-======-%%==%=$",
"%*@@%%1-%1====--11%==%%*@$1111=$1====1==-%==*%*@",
"%*@@%%-=%1====-=11%===%*@$1111=$1====1==-$===%*@",
"%*@@$$==$-====1--1%%*%%*@$=111-%1====1==-%*=*%*@",
"%*@@$$--=-====1=-=$*==%*@$--11=%1====1===%%=%%=@",
"%*@@*#1-$-====--=-%=$=%*@*1111-#1====-==-%===%*@",
"%=%%-11*--%%%==-**=%$%%%%1111-*-1%====---%$%$$%%",
"$=*%111*-1=%%==-**%$$$$=%-1111**-%==*%--*%$$$$=%",
"%%#*111*-1%%%==-**%$$$$=*11111==1%%==*--*%$$%%%%",
"$$%%111*--%%%=$=**%$$$%$%111-1--1=====--*%$$$$*%",
"$=%%111--=%%%==-*=%$$$%*%-11-----%$=%=--*%%%$$=%",
"%%=-11=%-*$$$%=-$$*$$=%$-<===*%-%%%$%==-$$%=*%%=",
"$%--1-%%=%$$$%*-%%$%%=%%-1==%=%=%%%$$==-$*%==#$=",
"=-%%-1-%$%==-%11-=%%%%--#1----%@%-%%%111*%%%*1-#",
"--%=11=%%%%=-%--==%=%%1-*1----%@%-%%%111*%%%#1-*",
"---%--%%%--%%%$$1=-         #########1111#%%%1-#",
"1-%=1=$%%111---==%% OOOoooo #########1111#%%%1=*",
"--=%11%%%%=        >>>:::>>>        ###111%%*--*",
"1-%%11$$%%- Ooooooo>>>:::>>>ooOOOOo ###111%%#1-*",
"1-%%---1%-1 Ooooooo>>>:::>>>ooOOOOo ###111=**<*#",
"1-%=--11   55,,,,,,555,,,555,,,,,,55   11#=**1-*",
"11##--11 OO55,,,,,,555,,,555,,,,,,55OO ##1=**<-#",
"1-#*--11 OO55,,,,,,555,,,555,,,,,,55OO #11=**<**",
"<-**--  >>>::::::>>>>>::::::>>>>>>>>:::   =**<*@",
"<**#-- o>>>::::::>>>>>::::::>>>>>>>>:::oo =**<-*",
"-1--%% o;;;++;;;;++...644XXX++;;;;+++++OO %%*--=",
"-1--#* o;;;++;;;;++...644XXX++;;;;+++++OO %%%--=",
"**#%=* o;;;++;;;;++...644XXX++;;;;+++++OO =%%=*%",
"***%*= o;;;++;;;;++X..644XXX++;;;;+++++OO =%%=*%",
"=*%%== OoooOOOOOOOO...433XXXOOooooOOooooo -#%=*%",
"**%%== o>>>>>::::::>>>322:::::::::>>>>>oo **%**%",
"=*%%*% o>>>>>::::::>>>322:::::::::>>>>>oo =%%=*%",
"%*%#== o>>>>>::::::>>>322:::::::::>>>>>oo *%%**#",
"-%%%$$ o>>>>>::::::>>>322:::::::::>>>>>oo %%%-%$",
"-%%%$$ O555,,,,,,55555,,,55555,,,,,,,,,OO %%%=%$",
"=%$$%% O555,,,,,,55555,,,55555,,,,,,,,,OO %%%-%%",
"-%$$%% o>>>::::::::>>>:::>>>>>::::>>>>>oo %%%-%%",
"-%$$$$ o>>>::::::::>>>:::>>>>>::::>>>>>oo %%%=%%",
"-%$$$$ o>>>::::::::>>>:::>>>>>::::>>>>>oo %%%=%%",
"%*%$@@ o;;;++;;;;++;;;+;;+++++++++;;+++OO %%$%=%",
"%=%$@@ o;;;++;;;;++;;;+;;+++++++++;;+++OO %%%%%%",
"%%--*% OOOOOOooooooOOOoOOoooOOoooooooooOO %%$%%-",
"%%--#* OOOOOOooooooOOOoOOoooOOoooooooooOO %%$%%-",
"%%--*# OOOOOOooooooOOOoOOoooOOoooooooooOO %%$%%=",
"%%--#*                                    %%$%%=",
"%%--%%=-*@@@@@*%--%%%$%%-**=*%-%@@@@@*%%=%%%%%%=",
"%%--%*=-%@@@@@*%--%%%$%%-%=%*=1*@@@@@*%%=%%@%%%=",
"=%%%%%%-=%@@@%=%%%--=*=%%%%%%%-*$@$$%=%%%--*%=%$",
"=%%%%%%-=%@@@%=%%%--=%=#$%%%%%-*$@$%%=%%%-=%%=%$",
"=%$$%%%-*$@@@$=%%%---#=%$%%%%%-=$@$$%=%%%--%*=%%",
"=%$$%%%-*%@@@$=%%%---*=%$%%%%%-=$@$$%-%%%--%#=%%",
"=%%$%%%-*$@@@%-%%%---*=%$%%*%%-=%@$$%=%%%--**=%%",
"%@@@$$==@=%%%-%#==-%%*%#@$=--1=%*%==-%##=-%**%#@",
"%#@@%%-=%=%%%=%@==-%%-%#@%11--=%=#---%##=-%***#@",
"%#@@%*-=$*%%%=%#==-%#-%#@%111==%=%==-%##=-%--##@",
"**-=$$*-%@$$%==---*==%*%=#**---%@$===----*=%%***",
"*#==$$*-%@$$%=-1--%=*%*%=%**==-%@%===-11==%%%*#-",
"*#-*$$*=$$$$%===--=%*%*%*%****=%$%====---=*%%***",
"***-$$*=$$$$%=----=*=%**-#****=%$%====11=**%#**-",
"*%*<$$==$$$$%==---*=*%*#=%****=%$$===-11-*=%**%*",
"*%**%%==%@$$$=-1--%=%%***%***==$@$===-11==*%#*%-",
"*@#*@@#%%%=%====%%==-%%$$@@@##%%%======-%=-%%%$$"
};
