/* XPM */
static char *_6cc989de6174615e39a2e5c33d4d942jQs3lGO2iszijidN[] = {
/* columns rows colors chars-per-pixel */
"48 65 26 1 ",
"  c black",
". c #1D1E1D",
"X c #401F0A",
"o c #4A240F",
"O c #592C0F",
"+ c #663010",
"@ c #7B3A13",
"# c #45720F",
"$ c #45750F",
"% c #48750F",
"& c #48770F",
"* c #48780F",
"= c #4A7B0F",
"- c #4D7B0F",
"; c #4D7D0F",
": c #8B4117",
"> c #99612F",
", c #AA692F",
"< c #B87D4B",
"1 c #4F820F",
"2 c #51800F",
"3 c #DADC23",
"4 c #F3F427",
"5 c #FBF92B",
"6 c #C68852",
"7 c #FEFB7B",
/* pixels */
";=##%%-&#&%%-&-&22&%%-;-#$;;22;#%&&&&-&%;&&;2;=#",
";=##&&;-#&-&&&=%22&&&;--#$2222-%%&-&&-%%-%%-2;-#",
"&=##&%;-&;;-----;2&---&-#&2222-%----;;--;&--;--#",
"&=##&&2-%----;;-;-%---&-#=22;;-%-;-------&&--&-%",
"&=##&&2;&2----;;22&-==&=#%2222-%2----2;-;&---&=#",
"&=##&&;-&2----;-22&-%-&=#%2222-%2----;--;&--=&=#",
"&=##%%--%;----2;;2&&--&=#%-222;&2----2--;=&=&&=#",
"&=##%%;;-;----2-;-%=-=&=#%;222-&2----2---%---&=#",
"&=##=$2;%;----;;-;&-%-&-#$2222-=2;----;-;&---&=%",
"&-&&;22=;;&&&--;==-&%&&%=2222;==2&----;;;&%&%%%&",
"%-=&222=;2-&&--;==&%%%%=&;2222=;;&--=&;;=&%%%%=&",
"&&$=222=;2&&&--;==&%%%%-=22222==;&&-=-;;=&%%&&&&",
"%%&&222=;;&&&-%-==&%%%&&&22222;-2;---&;;=&%%%%-&",
"%-&&222;;-&&&--;=-&%%%%=&;22;;-;;&&---;;=&&&%%=&",
"&&-;22-&;=%%%&-;%%=%%-&%;1--&-&;&%%%%--;%&&=-&%-",
"%&;;2;&&-&%%%&=;%&&&&-&&;2----&--&%%%--;%-%-=&%-",
"-;&&;2;&#&;;;&22;-&&&&2;&;;;;;&#&;&&&222=&&&=2;$",
";;&-22-&#&;;;&22==&&&&2;=2;;;;&#&;&&222=&&&&$2;=",
";;;&-&%&&-;&;                      &222=&&&&&2;$",
"2;&-;&&-;&&&& ++OO++++++++++++OO++ $2222$&&&&2-=",
";;-&2&&;22222 ++OO++++++++++++OO++ $2222$&&&=;;=",
";;&&22       :::@@XXX775555XXX@@:::       &&$2;=",
"2;&&;; O+++++:::@@XXX775555XXX@@:::+++++O -==1=$",
"2;-&;; +OOO+++++++ooo554444XXX++OOO++OOOO -==2;=",
"22**;; +OOO+++++++ooo554444XXX++OOO++OOOO -==1;$",
"2;$*;; +OOO+++++++ooo554444XXX++OOO++OOOO -==1==",
"1==*;; O.............443333.............+ -==1=#",
"1=**;; +................................O -==1;=",
";2;;&& +................................O &&=;;-",
";2;;$= +................................O &&&;;-",
"===$-= O................................O -&&-=&",
"==$==- O................................O -&&-=&",
"-=&&=- +................................+ ;$&-=&",
"==&&-- +................................+ ==&==&",
"-=&&=& +................................+ -&&-=&",
"&=&$-- O................................+ =&&==$",
";&&&%% O................................+ &&&;&%",
";&&&%% O,,,,,>>>>>,,,,,,,,,>>>>>>>>,,,,,O &&&-&%",
"-&%%&& O,,,,,>>>>>,,,,,,,,,>>>>>>>>,,,,,O &&&;&&",
";&%%&& O,,,,,>>>>>,,,,,,,,,>>>>>>>>,,,,,O &&&;&&",
";&%%%% +666<<<<<66666<<<<<<66666<<<<<<<<+ &&&-&&",
";&%%%% O,,,>>>>>>>,,,>>>>>>,,,,,>>>,,,,,O &&&-&&",
"&=&%## O,,,>>>>>>>,,,>>>>>>,,,,,>>>,,,,,O &&%&-&",
"&-&%## O,,,>>>>>>>,,,>>>>>>,,,,,>>>,,,,,O &&&&&&",
"&&;;=& O:::@@:::@@:::@@::::@@@@@@@@::@@@+ &&%&&;",
"&&;;$= O:::@@:::@@:::@@::::@@@@@@@@::@@@+ &&%&&;",
"&&;;=$ ++++++OOOOO+++OO++++OOO++OOOOOOOO+ &&%&&-",
"&&;;$=                                    &&%&&-",
"&&;;&&-;=#####=&;;&&&%&&;==-=&;&#####=&&-&&&&&&-",
"&&;;&=-;&#####=&;;&&&%&&;&-&=-2=#####=&&-&&#&&&-",
"-&&&&&&;-&###&-&&&;;-=-&&&&&&&;=%#%%&-&&&;;=&-&%",
"-&&&&&&;-&###&-&&&;;-&-$%&&&&&;=%#%&&-&&&;-&&-&%",
"-&%%&&&;=%###%-&&&;;;$-&%&&&&&;-%#%%&-&&&;;&=-&&",
"-&%%&&&;=&###%-&&&;;;=-&%&&&&&;-%#%%&;&&&;;&$-&&",
"-&&%&&&;=%###&;&&&;;;=-&%&&=&&;-&#%%&-&&&;;==-&&",
"&###%%--#-&&&;&$--;&&=&$#%-;;2-&=&--;&$$-;&==&$#",
"&$##&&;-&-&&&-&#--;&&;&$#&22;;-&-$;;;&$$-;&===$#",
"&$##%=;-%=&&&-&$--;&$;&$#&222--&-&--;&$$-;&;;$$#",
"==;-%%=;&#%%&--;;;=--&=&-$==;;;&#%---;;;;=-&&===",
"=$--%%=;&#%%&-;2;;&-=&=&-&=---;&#&---;22--&&&=$;",
"=$;=%%=-%%%%&---;;-&=&=&=&====-&%&----;;;-=&&===",
"===;%%=-%%%%&-;;;;-=-&==;$====-&%&----22-==&$==;",
"===1%%--%%%%&--;;;=-=&=$-&====-&%%---;22;=-&==&=",
"=&==%&=-&%%%%-;2;;&-&&===&===--%#%---;22--=&$=&;",
"$$&&##$&&&-&---;&&--;&&%%###$$&&&------;&-;&&&%%"
};
