/* XPM */
static char *_628566474cd48efee5800ca7f990a30N7Wi5cmAI7SdJCKX[] = {
/* columns rows colors chars-per-pixel */
"48 65 26 1 ",
"  c black",
". c #3A1909",
"X c #172C02",
"o c #233704",
"O c #592C0F",
"+ c #663010",
"@ c #7B3A13",
"# c #335209",
"$ c #3D620A",
"% c #45720F",
"& c #45750F",
"* c #48750F",
"= c #48770F",
"- c #4A7B0F",
"; c #4D7B0F",
": c #4B7D0F",
"> c #4D7D0F",
", c #8B4117",
"< c #99612F",
"1 c #AA692F",
"2 c #B87D4B",
"3 c #4F820F",
"4 c #51800F",
"5 c #588E0F",
"6 c #6AAF12",
"7 c #C68852",
/* pixels */
">-%%**;=%=**;=;=44=**;>-%&>>44>***===;=*>=*>4>-%",
">-%%==>;%=;===-*44===>;;%&4444;**=;==;**;=*;4>-%",
"=-%%=*>;=>>;;;;;>4=;;;=;*=4444;*;;;;>>;;>;;;;;;%",
"=-%%==4;*;;;;>>;>;*;;;=;%-44>>;*;;;;;;;;;*;=;=;%",
"=-%%==4>=4;;;;>>44=;--=-%*4444;*4;;;;4;;4=;;*=-%",
"=-%%==>;=4;;;;>;44=;*;=-%*4444;*4;;;;4;;>=;;;=-%",
"=-%%**;;*>;;;;4>>4==;;=-%*;444>=4;;;;4;;>==-;=-%",
"=-%%**>>;>;;;;4;>;*-;-=-%*>>44;=4;;;;4;;;*;;-=-%",
"=;**==4;*>;;;;>>>>=;*;=;==4444;=4;;;;>;;4=;-;=;%",
"*;==>44;>>===;;>--;=*==*=4444>->4=;;;=>>;===**-=",
"*;==>4>;>4;==;;>--==***-=>4444;>>=;;;->>-=****;=",
"*-=;44>;>4===;;>--==***;;>4444>>4==;-->>-=****;=",
"*;==>44*>>=;=>;>;-=====;=444>>>>4=;;;;>>-=****;=",
"*=%%*>4***>>;>4                 *=%%%%%4;%%%>;;=",
"*=%%*>>**%     565$$$$566=5665*5     4%%>>=%44=>",
"*=;%*4>>%% $%#%565$$$$566=5665*5$$$$ 44%4=%%44=>",
";>%%%>>   $5==;%#%***5%455*$$*56***56   %4%%44;-",
">>%*%; ;55=$$$#*5%#%**4%$5$**$$5$$$$5==5 4%%44>=",
">>===4 =####=**55%###**###*55**$**=5$$$$ 4%%44>-",
"4>>==> =####***55%###**###*55**$**=5$$$$ 4%%%4;-",
"4>>=* ##**$$###*##**$##$$*###*##***#555=# 44%4>&",
"4>>  *%#**$#***#$$**#$*###$$$#$*###$####==  %4>;",
"4>> #%#=oo#$***o#*##$$$**$#**#$#$$$*#$$=$$# %%:=",
"4>> ###*oo#$***o#*##$$$**$#**#$#$$$*#$$=$$# >%:=",
"4>4 #$#=oo#$===o#*##$$$**$#**#$#$$$*#$$*$$# 4%:=",
"44 $$X$$##Xo$$$$X#$$o#*oo##**$oX$$$#XXX#o###  :=",
"3: ##X$#XX#$###X####o$###X$##o#X###o$XXX#X$$X >=",
"3: XX##$XX##$$$X#XXX$#$###X##$#X####$##X$#XXX >-",
">4 XX##$XX##$$$X#XXX$#$###X##$#X####$##X$#XX  >>",
">44  XXX##XXXXXXXXXXX##XXXX$$#XXXXXXX##XXX  444;",
":-444 OOXXXO++++XXXXXXXXX+OXXXXO++++XXXXO %444-=",
":-444 <<<<1<111<<1<<<<<111<<<<1<1111<<<1< %%44-=",
"--4%% 72222277772277272227722722222277727 4%44-=",
";-%%% 72222277772277272227722722222277727 4%%4-=",
"--%4% 1<<<<<1111<<<<1+O++O1<<<1<<<<1<11<1 **%4;=",
"--%4% ,@@@,,@@@@@,,,+.....+,,,@,@@@,@@@@, **%%-=",
";=%4% ++OOOO++++O+OO.......OOO++OOO+O++OO ==;%=*",
">=%4% ++OOOO++++O+OO.......OOO++OOO+O++OO ==>%=*",
">&%4% 1<<<<1111<<+...........O1<<<<11<<<1 **=*==",
">-%4% 77222222277O...........+72222727772 *==;=*",
">-%>= <<<<11<<<11O...........+<<<<<1<1111 4%%>=*",
">==4* <<<<11<<<11O...........+<<<<<1<1111 %%=;;=",
"=;%>% <<<<11<<<11O...........+<<<<<1<1111 %4**;=",
"=-%>% ,@@@,,,,,@,+...........O,@@@@@,,,@@ %4**;=",
"==%%% ++OOOO+++O++...........++OOOO+OOOO+ =%=*=>",
"==%%4 11<<<<<<<11O...........O11<<<<111<< >%**=>",
"==%%4 11<<<<<<<11O...........O11<<<<111<< 4%*=*;",
"==4%4 72227722222O...........O27777222227 ==%;;;",
"==4%4 1<<<11<<<11O...........O<11111<<<11 ;=%%=;",
"==4%4 ,@,,@@@@@,@O...........+@@,,,,@,,@@ ==>%=;",
";=4%> ,@,,@@@@@,@O...........+@@,,,,@,,@@ ==>%=*",
";=4%= +OOOOO++++O+OOO++++O+OOOO+OOOOO++++ %%%%==",
";=;=%                                     =*%%==",
";======>-=%%==>===>>>-;=======>;=%===>===>;==;==",
";======>-=%%%=>===>>>-;====-==>;=%===>===>;==;==",
"=&%%==;;=;===>==;;>=&-=&%=>>44;=;=;;>=&&;>=>:=&%",
"&&%%==>;=-===;=&;;>==>=&%=444>;===>>>=&&;>=::=&%",
"=&%%*->;%;===;=&;;>==:=&%=444;;=;=;;>=&&;>=::=&%",
"-->>**->=%=*=;;>>>-;-=-=;=-->;>=%*;;;>>>>;-==-=:",
"-=;;**-;=%**=;>>;;;;-=-=-=---->=%=;;;>44>;===-=:",
"--->**;;=***=;;;>>;=-=-&>=----;=*=;;;;>4>-;==--:",
"-=::**-;=****;>>>>--;=--:&---->=*=;;;;44;--==-&:",
"--::**;;=***=;;4>>;=-=-=-*--;-;=%*;;;;44>;;==-&>",
"-&::*=;;*%**=;;4>;-;-=-=;=--;;;*%*;;;>44;--==-->",
"&==*%%%===-*;;;;==;>>==**%%%&&===;;;;;;>=;>===**"
};
