/* XPM */
static char *_0fb5a396e5e4ad6b0933ef855f602c7s0UwLPqYs6ToDdxU[] = {
/* columns rows colors chars-per-pixel */
"48 65 13 1 ",
"  c #45720F",
". c #45750F",
"X c #48730F",
"o c #48750F",
"O c #48770F",
"+ c #48780F",
"@ c #4A7B0F",
"# c #4D7A0F",
"$ c #4D7B0F",
"% c #4B7D0F",
"& c #4D7D0F",
"* c #4F820F",
"= c #51800F",
/* pixels */
"&@    &O OX$OO@O==XXO&&@ .&&==# OOOOO@OX=XO&=&@ ",
"&@  OO&& O$OOO@X==XO#&&@ .====@ XO$#O$XO& O&=&@ ",
"O@  XO=$X&&$$$&&==O#$# @ O====$X$&###&##&@$$$$$ ",
"O@  OO=$O&$$$&&$&$O$$#$@ @===&$O&&&#&&$$&X$#$O$ ",
"O@  OO=$#=##$$&&==O$$@O@ X====$X=##&#=&#&O##$O@ ",
"O@  OX=$X&&&$$=#==O$@$O@ O====$O=&###=&#&O##@O@ ",
"O@  XO&$#&##&#=#&= #@#O@ O$===&X=#&##=##&@X@@O@ ",
"O@  OX&&#&&##&&&&&O#O@O@ X&===##&&##&=#&$O$@$O% ",
"O$  @.&$X&####=&$&O###O@ @====$.=###$$$$&O$@$ % ",
"O$OO$==@&=OOO##&@@OOOX $O====&@%=&##@$$&&@OXXO$.",
"X$OO&=&&&=#OO@$&@@OOXOX$O&====@%&O$$@@&&@OXOOX$O",
"X@O&==*%&=OOO@$&@@OXOXO$&&====%&&O@@$@&&@OOXXO@O",
"O@OO===%&&OOO@O&@@OOXOOOO&====#&=&$@@#&&@OOXOX$.",
"X$OO===%&&OOO$$&@$OXOXO@O&==&$&&&O$$O@&&@OXOXO@O",
"OX$&=*$X&&OXOX@$XO@OX$OO*=##@@O&OXOXO@$&XXO$&XO&",
"XO&&=&$O&.XOXO@&OOOXO&.+&=##$$X$$OXOX#$&O@O$%OX&",
"&&O@&=&O O&&&O==&@OOOO&&O&&&&&O O&OO@===$OOO&&&O",
"&&OO==$O O&&&O==@@OOOO=&@=&&&&X O$OOO===@OOOO&&O",
"=&&@=&&O O&&&O&=@@OOOO=&$&&&&&O O&OOO&==@OOOO&&@",
"=&OO=&&X O&&&O==@@OOO@=&$&&&&&OXO&O$O===@OOO$=&O",
"&&$O==&@ O&&&&==@@O@OO&&O&&&&&O O&OOO&==@OOOO&&O",
"&&OO==&O O&&&.=&@@O.OO=&@&&&&$X O&OO@&==@OOO@&&@",
"=&OO&&OXXX@@@O&O&&@&%%=&O&OOOOXXO@OOO&@.& $@@*%O",
"=&OO&&OXXO@@@O$@==.$$&=&O&OOOOXXO$OOO&O&=@$@@*%O",
"=*.+&&OXXX@@@O&.==&$$@*%O&OOOOXXX@OOO$O@&&$@@&%O",
"=*.+&&OXXO@@@O&@==O$@@*@O&OOOOXXO@OOO$@.&O$&&=&.",
"*%@.&&OXXX@@@O$@=&@$$%=&O&OOOOXXX@OOO&.@&&$@%*%@",
"*%++&$OXXO@@&.$O=&O$@*=&O&OOOOXXO@OOO&OO$@$@%*%.",
"&&&&@.XXOO$@@X&@&&OOXO&&&@XXXXOO.$XOO&@@&OOX@&&&",
"&=&$.@XOOO@$$O&@&&O.OX&&&.XXXX @O@OOX&@@$OXOO&=$",
"$@.O$@OX$&@. .$OO.O&$O@@O@OXOXO$&O.. $OO.O&OO@@O",
"$%@.@$XO$$.@@ &OO O$%O$@O$XOXOX$&O...$OO.O&OOX@O",
"#@OO$OXO$&O@O.#O..O%@@@@O@XOXOO#&@...&OO.O@@O@@O",
"@@OO$@OX$&O.@ #O. O&& $@O#OXOXO$&O...$OO O&..$@O",
"@@OO@$XO$&.@O.$@...$&.@@O@XOXOX$&O.. $OO.O&OO@@O",
"X@OO@@OX$&@OO.$O...&@@$$OXOXOXO$&O...$OO .%OO$@O",
"$OOXXOOO@===&O$$$$ OXO&OOOOOOOO@=&XOO$.O$.OOO&OX",
"&@XOOXOO@&==&O$X$$.XOO&OOXOOOOO@=$OXO@OO$.XOO&OO",
"&OOXXOOO$===&@$O$$.OXO$OXOOOOOO@==XOX@OO$ OOO&OO",
"&OXOOOOO$===$O@O$$.XOO&OOXOOOOO@==OXO$OO$ OOO&OX",
"&@OXOXOO@====O$.## OXO$@XOOOOOO@==@OO@OO$ OOO&OO",
"&OXOXOOO&&==&O$O## OOO&.OXOOOOO@==OXX$OO$ XOO$OO",
"O$ X  OO X&&&XXX#$OOOXO$O XOXOO O&XOO XO$OOOXO$X",
"O@OO  XO O&&&O O#$OO@OO@X OXOXO X$OXX OX$XOOOO@O",
"O@&&OO@&O     @O&&OO XOO&O@@$#&OX    $OO$OOXOOO&",
"O.&&O@$&O     @O&&XOOOOO&O$@$#=O     @OO&XOOXOO&",
"OO&&@O$&O     @O&&XOOXOO&@$O$@=#     @OO&XOXOOO&",
"OO&&O$#=O     @O&&OOOOOO& $@$@&O     @OO&OOOXOO&",
"OO&&OO$&&     @O&&OOOOOO$@@@@$$O     @OO$OOOOOO&",
"OO&&@O$$O     @O&&XOOXOO&O$O@$&@     @OO&XO.XOO&",
"$OOXOOO&@X   X&OOO&&&@$OOOOOOO&@O OXO$OOO&&@O$OX",
"$OXOOOO&@O   O&OOO&&&O$OXOOOOO&@X XOO&OOO&& @$OO",
"$@OXOOO&@O   X&OOO&&& $OOOOOOO&$O OXX&OOO&&O@$.X",
"$ XOOOO&@X   O&OOO&&&@$OXOOOOO&&X XOO&OOO&$@ $@O",
"$ OOOOO&@X   O&OOO&&&@$OOOO&OO&#O OXO$OO@&&@@$OO",
"@   OX&&O$OOO&O.&$&O.%O. X&&&&&O@O&&&O. $&.@%O  ",
"..  XO&$X@OOO$O.$$&OO%O.XO=&=&$OOO&&&O..$$@%%.. ",
"@.  OO=$ $OOO$O.$$&OO%O. @=&=$$O$O$$&O..$$.&@@. ",
"@.&%XO@&O OO@#$&$&$@@O@O$O@@&&&O O##$&&=$@$OO@O%",
"@@&$OX@&O OXO&#=$#@@$ @@$O@@@@&O O##$$==$$@OO@@@",
"@@@%OX@&O XOX$#$&&$$$O@@$O@@@@&OXO#&&$&&&@@O @O%",
"@O%%XO@$OXOXO$&&&&@@@.@.%.@@@@&O $##$$==$$$.@@@%",
"@@%%OX$$O XO$##=&&@$$ @@$O@@@@$O X&##&==&@@O.%O&",
"@.%%XO$$O OXO#&=$$@@$O@O%X@@$$&O X##&&==$@$OO@O$",
"OXOX  .OOX@$@$$$OO$$&OXOX ....OOX$$$$$&&O$&OOXOX"
};
