/* XPM */
static char *b0d20a510a184347ce9a62ea48b8ba71Gd827GrnELHuG5iT[] = {
/* columns rows colors chars-per-pixel */
"48 65 44 1 ",
"  c black",
". c #172C02",
"X c #233704",
"o c #3F3727",
"O c #2F4B08",
"+ c #304C08",
"@ c #324F08",
"# c #335209",
"$ c #345409",
"% c #36570A",
"& c #395C0A",
"* c #3A5D0B",
"= c #3D620A",
"- c #3D620B",
"; c #3C610C",
": c #40670B",
"> c #40660C",
", c #426B0B",
"< c #40680D",
"1 c #446E0C",
"2 c #45700D",
"3 c #49750C",
"4 c #48740D",
"5 c #48750F",
"6 c #49750F",
"7 c #49760F",
"8 c #4A780D",
"9 c #4A780F",
"0 c #4A790F",
"q c #4C7C0F",
"w c #4D7E0F",
"e c #4F7F0F",
"r c #4F432B",
"t c #6A5439",
"y c #776948",
"u c #8E7A52",
"i c #50820F",
"p c #51820F",
"a c #52850F",
"s c #53860F",
"d c #53870F",
"f c #54870E",
"g c #578E0F",
"h c #588E0F",
/* pixels */
"hhhhhhhhhhhhhhhhhhhhh    hhhhhhhhhhhhhhhhhhhhhhh",
"hhhhhhfqdhhhhhhhhhh  hhhh  hhhhhhhhh8fhhhh5hhhhh",
"hhh81h<;5dpg5hhhhh hhhhhh-h hhhhhh81$,hhhhhhhhhh",
"hhh1hi;hhp5ghhhhh hhhhhhh#h-  hhhh1h-hwhhh,hhhhh",
"h81hi5ihqhhhhhhh hhhhhhh#-hh- hhhhhh,hhhsi52hhhh",
"h1hsih81h81hhhh hhhhh5h#-hhhh- hhhh82hhhp5,hhhhh",
"hhhi5h1hh2ghhhh hhhh5h5=hh5h5#- hhh,hhhhhhhhhhhh",
"h81hsw8hffphhh 5hhh5h5=#h5h5#-- hhhhfihhhh51hhhh",
"h1hhp5555p5hh 5h5h5h5=#=5h=#=#== hhhi5fwfh1hhdph",
"hhhhhp55qhhh 555h5h5h#=##=#hhhh=$ hhhh555hhhhp5g",
"hhdqphhhhhh #5555h5h==#hhh=hhhh5- hhhh555hhhhhhh",
"hh2*5dfhhh h-#;#55=#=#=hhh#=#h5h# hhhhs5qhhhhhhh",
"hh1hf85hhh -hhh-#=#=#=hh5h5h=#h5-# hhhhhhhsphhhh",
"hhhhi5hhh -#hhhh5#=hhhh5h5h##=#=#- hhhhhhhp5hhhh",
"hhhdi81hh #-hhh5=##hhh5h555=hhhh5- hhhhhhhfphhhh",
"hd0551hhh hhhh5h#=hhh5h5=#=#hhh5h5- hhh81hp5hhhh",
"h0555hhhh -#-5h5==hhhh5#=hhhhh5h5h$ hhh1h51fphhh",
"gp55ehhh =--#-#-=hhhh55=hhhhh5h5-#-; hhhh1hp5hhh",
"h555hhh -#hhhh-#=h=h5h=#hh5h5h5##-5# hhhhhhhhhhh",
"h555hhh #hhhhhh-#=#5h5#5h5h5#5h5-#h5# hhdp8151hh",
"hp5ehhh -hhhhh5h=#=h5h=#5h5##h5h55hh; hhi51hhhhh",
"hhhhhh 5--hhh5h5#5hhhhh5#==#h5h55hhh5 hhhf8dhhhh",
"hhhh  5hh--h5h5h=#hhhhhh5#5#5h55#hhhh# hh0558fhh",
"hhh 5hhhh5#-h555#=hhhhhhhhh=#555-hhhh5# h55555hh",
"hh 5hhhh5h5#55h#=hhhh5h55hhh5=##5hhh5h# hi555wih",
"hh hhhh5h5h-5hh5#=5h5h55#=hhh5=hh5h5h55X hhh8h5h",
"hh h-h;h5h5#hhhh5#=5h#=#5hhhh5#h5h5h55-X hhh1hhh",
"hhh h-#>h5##5hhhhh5=#==5hhhhh5#5h5h55-#+ hhhhhhh",
"hhhh #5h##5h#-hhh5h55#5hhhhhhh#=5555-5#X hhhhhhh",
"hhh hhhhhh5h5h#h5h5h5#hhh5h5h=#5555-5-##+ hh8,hh",
"hhh hhhhh5h5h5#5h5h5#=hh5h5h55=5-5-5+##+# hh1hhh",
"hhhh 5hh555h5h5h5h5h=hh5h5h55=5=5#5@-#X## hhh1hh",
"hhhh 55555g55555g#58-h5g5h555#-5##X++###O# hhhhh",
"hhh #-5-5-5555-#5#5@55h5555555O#X-X$$+X###O hhhh",
"hhh O--5-5-5--55-5-5-5-555555-5#=$XX$@##O### hhh",
"hh ++XO#5=5-5#5#5#8@8@55-5-5-5##+@@+OO+###O# hhh",
"hh XXO$-+O#5-5X5X###@X$5-+5+5#-OOXOXXOXO###XX hh",
"hh  XXXXOX=@O-##-#-#$-5OX+O+-##XOOOOXOXXXXXXX hh",
"hhhh   XX+XX###OOXX@-@@O@-OXX#OXXOXOXOXXOXX  hhh",
"hhhhhhh   XXXX##XXOX$-$+$+$+XOXXXXXXXXXXX  hhhhh",
"hhhhhhhhhh +X+X#XXXO$##OXXXX####XXXOXXXX ghhhhhh",
"hhhhd00dhhh     $OXXOOXX++#X#X#XXXXOXX  hw&,181h",
"hhf05555hhhhhhhh  XXOXXXX#XXX+#XOXOXX hhwOOOO1Oh",
"hh85555phhhhhhhhhh .XXXX#X#XXXXXXX   hh8+OOOhhhh",
"hhp555502$$5hhhhhh o.XXXXXXXXX... hhhhh1++O:h81h",
"hhhhd555#O++hhhhh oooo..XXXX.ooooo hhhhhh81hh1Oh",
"h8##1555$+O%1hhhh oooorro..ooooooo hhhhhs,Oghhhh",
"h$+++hp555h1Ohhh oroorytroooooooroo hhhhi5s11hhh",
"h2++,hhhh82hhhh ortoorutooooooorytoo hhhhhi-+hhh",
"hhhh5;,hh,+hhh oyyoorrutoorootoouuooo hhhhfw5*5h",
"hhhh1O+hhhhh  oruooortuoortrotrouytroo hh.55+++h",
"hhhhhhhhh   otyyooorrtuoorrootroorttro hhh55+++h",
"hhhhhhhh oorroooooortuuotyrooryrroo    hfii5>+>h",
"hhdphhhhh    ooooorrtuutyyroootyrr hhhhhi5hhhhhh",
"hhp552hghhhhh ooorryuuuuuytoootyyto hhhf85shdphh",
"hhhh,+fphhhhhh ooryuuuuuuuyooortuyrr  h5555ip5hh",
"hhhhhh2#$5h.hhh oryuytyyyuyroootuytrro s5555hhhh",
"hhhhhh$+++hhhh ooryyttootyuyoooruuytrr hp55qhhhh",
"hhhfih1++*hhh oortyrooooortyrootuuytro hhhhgh81h",
"hhhi5ih555hhh ortyyoo      otrorruytr hhd85sh2+h",
"hhhf55h1;ihh orryto  hhhhhh  oorrrrro hh8555hhhh",
"hf5555h1+hhh rrro  hhhfihhhhh  oorro hhhi55wihhh",
"h05555h51hhh ro  hhhhhi5h5<hhhh ooo hhhh81hi5.hh",
"hp555ih1+hhh   hhh.h.h51h<+hhhhh   hhhhh1Ohhhh.h",
"hhhhhhhhhhhhhhhhhhhhhh1+hhhhhhhhhhhhhhhhhhhhhhhh"
};
